<svg width="64" height="24" viewBox="0 0 64 24" fill="none" xmlns="http://www.w3.org/2000/svg">
<g opacity="0.7">
<mask id="mask0_96_428" style="mask-type:luminance" maskUnits="userSpaceOnUse" x="0" y="0" width="64" height="24">
<path d="M64 0H0V24H64V0Z" fill="white"/>
</mask>
<g mask="url(#mask0_96_428)">
<path d="M33.042 7.94975L36.0868 7.75102C36.1563 8.2537 36.2837 8.62777 36.492 8.89666C36.8278 9.31751 37.2909 9.52796 37.9045 9.52796C38.356 9.52796 38.7149 9.42274 38.958 9.20062C39.1896 9.02528 39.3285 8.74471 39.3285 8.45243C39.3285 8.17187 39.2012 7.90302 38.9812 7.72763C38.7496 7.51723 38.2055 7.30678 37.3488 7.11977C35.9479 6.8041 34.9407 6.38325 34.3502 5.84551C33.7598 5.34283 33.424 4.60636 33.4472 3.82312C33.4472 3.28537 33.6093 2.74762 33.9103 2.30339C34.2576 1.80071 34.7323 1.40324 35.2996 1.18113C35.9132 0.912255 36.7699 0.771973 37.8466 0.771973C39.1664 0.771973 40.1736 1.01746 40.8683 1.52014C41.563 2.01114 41.9798 2.80607 42.1071 3.89326L39.0969 4.06861C39.0159 3.601 38.8538 3.26199 38.5876 3.03987C38.3213 2.81776 37.974 2.71255 37.5224 2.71255C37.152 2.71255 36.8741 2.79438 36.6888 2.94635C36.5152 3.08663 36.3994 3.29706 36.411 3.53086C36.411 3.70621 36.5036 3.86988 36.6425 3.97509C36.793 4.11537 37.152 4.24396 37.7192 4.36087C39.1201 4.66481 40.1158 4.96876 40.7294 5.28438C41.343 5.60001 41.7829 5.98579 42.0492 6.4417C42.3271 6.90932 42.466 7.44706 42.4544 7.99652C42.4544 8.65116 42.2692 9.30584 41.8987 9.85525C41.5167 10.4281 40.9841 10.8723 40.3589 11.1412C39.699 11.4335 38.8654 11.5854 37.8697 11.5854C36.11 11.5854 34.8944 11.2464 34.2113 10.5567C33.5282 9.86697 33.123 9.00189 33.042 7.94975ZM0.729379 11.4101V0.959013H6.06659C7.05064 0.959013 7.81478 1.04085 8.33576 1.2162C8.84513 1.37986 9.29666 1.71888 9.59769 2.1748C9.93341 2.67747 10.0955 3.26199 10.084 3.86987C10.1187 4.89859 9.59769 5.88057 8.70621 6.39497C8.35892 6.5937 7.97685 6.73398 7.5832 6.8041C7.87266 6.88594 8.16207 7.02622 8.4168 7.18989C8.6136 7.35356 8.77567 7.54062 8.92621 7.73935C9.09986 7.93808 9.25035 8.16019 9.37769 8.39398L10.9291 11.4217H7.29379L5.58033 8.20692C5.36033 7.79779 5.17511 7.5289 5.00146 7.40034C4.76988 7.23666 4.49204 7.15483 4.21418 7.15483H3.93632V11.3984H0.729379V11.4101ZM3.93632 5.19088H5.29087C5.58033 5.16749 5.85816 5.12071 6.13605 5.05059C6.34442 5.01554 6.52965 4.89859 6.65704 4.72325C6.9696 4.30242 6.92329 3.70621 6.54122 3.34382C6.33285 3.16846 5.92762 3.07494 5.34875 3.07494H3.93632V5.19088ZM0 20.3648L3.04486 20.166C3.11433 20.6687 3.24168 21.0428 3.45007 21.3117C3.77424 21.7325 4.24891 21.9546 4.86254 21.9546C5.31402 21.9546 5.67294 21.8494 5.91605 21.6273C6.14762 21.4402 6.28654 21.1714 6.28654 20.8791C6.28654 20.5985 6.1592 20.3297 5.9392 20.1544C5.70767 19.9439 5.16353 19.7335 4.29522 19.5465C2.89436 19.2308 1.88712 18.81 1.29667 18.2722C0.706221 17.7695 0.370478 17.033 0.393632 16.2498C0.393632 15.7121 0.555718 15.1743 0.856729 14.7301C1.20405 14.2274 1.67872 13.8299 2.24602 13.6078C2.85962 13.3389 3.71635 13.1986 4.79304 13.1986C6.11289 13.1986 7.12009 13.4441 7.81478 13.9468C8.50941 14.4495 8.91463 15.2328 9.04198 16.32L6.03186 16.4953C5.95078 16.0277 5.78871 15.6887 5.52245 15.4665C5.26772 15.2444 4.90885 15.1393 4.45731 15.1509C4.08683 15.1509 3.80897 15.2328 3.62373 15.3964C3.43849 15.5367 3.3343 15.7471 3.34588 15.9809C3.34588 16.1563 3.43849 16.32 3.57743 16.4252C3.72793 16.5655 4.08683 16.694 4.65413 16.8109C6.05501 17.1149 7.05064 17.4188 7.66424 17.7345C8.27784 18.0501 8.71779 18.4359 8.98409 18.8918C9.26193 19.3594 9.40085 19.8971 9.40085 20.4349C9.40085 21.0896 9.20405 21.7325 8.84513 22.2819C8.46311 22.8548 7.93054 23.299 7.30536 23.5679C6.64546 23.8601 5.81186 24.0121 4.81619 24.0121C3.05644 24.0121 1.84081 23.6731 1.15774 22.9833C0.474673 22.2819 0.0926193 21.4169 0 20.3648Z" fill="black"/>
<path d="M15.3978 19.5465L18.1996 20.3999C18.049 21.113 17.7365 21.791 17.3081 22.3872C16.9144 22.9133 16.3935 23.3224 15.8031 23.5913C15.201 23.8602 14.4369 24.0005 13.5107 24.0005C12.3877 24.0005 11.4615 23.8368 10.7553 23.5095C10.0375 23.1822 9.42386 22.5976 8.90287 21.7676C8.38193 20.9376 8.1272 19.8738 8.1272 18.5762C8.1272 16.8461 8.57873 15.5134 9.49331 14.5898C10.408 13.6663 11.693 13.1987 13.3602 13.1987C14.6685 13.1987 15.6872 13.4676 16.4398 13.9936C17.1808 14.5314 17.7365 15.3497 18.107 16.4486L15.2821 17.0799C15.2126 16.8344 15.1084 16.5889 14.9695 16.3784C14.7958 16.1329 14.5758 15.9459 14.3096 15.8056C14.0432 15.6654 13.7423 15.6069 13.4412 15.6069C12.7119 15.6069 12.1561 15.8992 11.7741 16.4953C11.4847 16.9279 11.3342 17.6176 11.3342 18.5528C11.3342 19.7102 11.5078 20.5051 11.8552 20.9376C12.2024 21.3702 12.6887 21.5806 13.3255 21.5806C13.9391 21.5806 14.4022 21.4052 14.7148 21.0662C15.0273 20.7038 15.2589 20.2011 15.3978 19.5465ZM21.9391 13.3741H25.1344V17.0331H28.6308V13.3741H31.8494V23.8251H28.6308V19.5933H25.1344V23.8251H21.9391V13.3741Z" fill="black"/>
<path d="M31.4094 18.5996C31.4094 16.8928 31.8841 15.5601 32.8218 14.6132C33.7596 13.6663 35.0794 13.187 36.7582 13.187C38.4832 13.187 39.803 13.6546 40.7408 14.5898C41.6786 15.525 42.1417 16.8344 42.1417 18.5177C42.1417 19.7452 41.9333 20.7389 41.5281 21.5221C41.1345 22.2937 40.5209 22.9249 39.7683 23.3458C38.9926 23.7784 38.0317 24.0005 36.8855 24.0005C35.7162 24.0005 34.7553 23.8134 33.9912 23.4393C33.2039 23.0418 32.5556 22.4223 32.1272 21.6624C31.6525 20.8441 31.4094 19.8271 31.4094 18.5996ZM34.6048 18.6112C34.6048 19.6634 34.8016 20.4232 35.1836 20.8909C35.5657 21.3468 36.0983 21.5806 36.7698 21.5806C37.4528 21.5806 37.9854 21.3584 38.3674 20.9025C38.7495 20.4466 38.9347 19.64 38.9347 18.471C38.9347 17.489 38.7379 16.7642 38.3443 16.32C37.9506 15.864 37.4181 15.6419 36.7466 15.6419C36.1562 15.6186 35.5889 15.8758 35.1952 16.3317C34.8016 16.7876 34.6048 17.5474 34.6048 18.6112ZM45.4181 18.5996C45.4181 16.8928 45.8928 15.5601 46.8306 14.6132C47.7683 13.6663 49.0883 13.187 50.7669 13.187C52.4921 13.187 53.8234 13.6546 54.7495 14.5898C55.6756 15.525 56.1504 16.8344 56.1504 18.5177C56.1504 19.7452 55.9419 20.7389 55.5368 21.5221C55.1434 22.2937 54.5297 22.9249 53.7768 23.3458C53.0012 23.7784 52.0403 24.0005 50.8944 24.0005C49.725 24.0005 48.7641 23.8134 47.9998 23.4393C47.2125 23.0418 46.5642 22.4223 46.1359 21.6624C45.6612 20.8441 45.4181 19.8271 45.4181 18.5996ZM48.6135 18.6112C48.6135 19.6634 48.8102 20.4232 49.1923 20.8909C49.5744 21.3468 50.1071 21.5806 50.7786 21.5806C51.4615 21.5806 51.9942 21.3584 52.3763 20.9025C52.7584 20.4466 52.9434 19.64 52.9434 18.471C52.9434 17.489 52.7466 16.7642 52.3528 16.32C51.9594 15.864 51.4267 15.6419 50.7551 15.6419C50.165 15.6186 49.5862 15.8758 49.2041 16.3317C48.8102 16.7876 48.6135 17.5474 48.6135 18.6112Z" fill="black"/>
<path d="M55.8152 13.374H59.0105V21.2532H64.0002V23.8251H55.8035V13.374H55.8152Z" fill="black"/>
<path d="M52.2932 12.7707C55.5101 10.3227 56.5021 6.1731 54.5087 3.50219C52.5153 0.83129 48.2918 0.650533 45.0746 3.09846C41.8575 5.54642 40.8655 9.69602 42.8588 12.3669C44.8521 15.0379 49.0758 15.2186 52.2932 12.7707Z" fill="white"/>
<mask id="mask1_96_428" style="mask-type:luminance" maskUnits="userSpaceOnUse" x="41" y="1" width="15" height="14">
<path d="M52.2932 12.7707C55.5101 10.3227 56.5021 6.17311 54.5087 3.50219C52.5153 0.831287 48.2918 0.650535 45.0746 3.09846C41.8575 5.54638 40.8655 9.69603 42.8588 12.3669C44.8521 15.0378 49.0758 15.2186 52.2932 12.7707Z" fill="white"/>
</mask>
<g mask="url(#mask1_96_428)">
<path d="M34.655 6.61033L51.2793 -6.03955L62.7828 9.37438L46.1586 22.0242L34.655 6.61033Z" fill="white"/>
<mask id="mask2_96_428" style="mask-type:luminance" maskUnits="userSpaceOnUse" x="34" y="-7" width="29" height="30">
<path d="M34.655 6.61033L51.2793 -6.03955L62.7828 9.37438L46.1586 22.0242L34.655 6.61033Z" fill="white"/>
</mask>
<g mask="url(#mask2_96_428)">
<path d="M52.2939 12.7707C55.5109 10.3227 56.5029 6.17311 54.5095 3.50219C52.516 0.831287 48.2925 0.650535 45.0753 3.09846C41.8583 5.54638 40.8662 9.69603 42.8595 12.3669C44.8528 15.0378 49.0765 15.2186 52.2939 12.7707Z" fill="white"/>
<mask id="mask3_96_428" style="mask-type:luminance" maskUnits="userSpaceOnUse" x="41" y="1" width="15" height="14">
<path d="M52.2942 12.7707C55.5111 10.3227 56.5031 6.17311 54.5097 3.50219C52.5163 0.831287 48.2928 0.650535 45.0755 3.09846C41.8585 5.54638 40.8664 9.69603 42.8598 12.3669C44.8531 15.0378 49.0768 15.2186 52.2942 12.7707Z" fill="white"/>
</mask>
<g mask="url(#mask3_96_428)">
<path d="M39.2844 7.63923L50.9252 -1.21826L58.1506 8.46337L46.5097 17.3209L39.2844 7.63923Z" fill="white"/>
<mask id="mask4_96_428" style="mask-type:luminance" maskUnits="userSpaceOnUse" x="39" y="-2" width="20" height="20">
<path d="M39.2839 7.63973L50.9247 -1.21777L58.1501 8.46387L46.5092 17.3214L39.2839 7.63973Z" fill="white"/>
</mask>
<g mask="url(#mask4_96_428)">
<path d="M52.293 12.7711C55.5099 10.3232 56.5019 6.1736 54.509 3.50268C52.5155 0.831776 48.2915 0.651023 45.0746 3.09895C41.8575 5.54687 40.8655 9.69651 42.8588 12.3674C44.8521 15.0383 49.076 15.2191 52.293 12.7711Z" fill="white" stroke="white" stroke-width="4" stroke-miterlimit="10"/>
</g>
<mask id="mask5_96_428" style="mask-type:luminance" maskUnits="userSpaceOnUse" x="40" y="-1" width="17" height="18">
<path d="M40.9441 13.4676L44.9768 -0.693848L56.5026 2.63401L52.4696 16.7954L40.9441 13.4676Z" fill="white"/>
</mask>
<g mask="url(#mask5_96_428)">
<path d="M39.2854 7.65162L50.9381 -1.21826L58.1517 8.45106L46.4987 17.3209L39.2854 7.65162Z" stroke="white" stroke-width="4" stroke-miterlimit="10"/>
</g>
<path d="M52.2944 12.7707C55.5114 10.3227 56.5034 6.17311 54.5099 3.50219C52.5165 0.831287 48.293 0.650535 45.0758 3.09846C41.8587 5.54638 40.8667 9.69603 42.86 12.3669C44.8533 15.0378 49.077 15.2186 52.2944 12.7707Z" stroke="white" stroke-width="4" stroke-miterlimit="10"/>
<path d="M39.2844 7.63923L50.9252 -1.21826L58.1506 8.46337L46.5097 17.3209L39.2844 7.63923Z" fill="white"/>
<mask id="mask6_96_428" style="mask-type:luminance" maskUnits="userSpaceOnUse" x="39" y="-2" width="20" height="20">
<path d="M39.2839 7.63973L50.9247 -1.21777L58.1501 8.46387L46.5092 17.3214L39.2839 7.63973Z" fill="white"/>
</mask>
<g mask="url(#mask6_96_428)">
<path d="M52.293 12.7711C55.5099 10.3232 56.5019 6.1736 54.509 3.50268C52.5155 0.831776 48.2915 0.651023 45.0746 3.09895C41.8575 5.54687 40.8655 9.69651 42.8588 12.3674C44.8521 15.0383 49.076 15.2191 52.293 12.7711Z" fill="white" stroke="white" stroke-width="4" stroke-miterlimit="10"/>
</g>
<mask id="mask7_96_428" style="mask-type:luminance" maskUnits="userSpaceOnUse" x="40" y="-1" width="17" height="18">
<path d="M40.9441 13.4676L44.9768 -0.693848L56.5026 2.63401L52.4696 16.7954L40.9441 13.4676Z" fill="white"/>
</mask>
<g mask="url(#mask7_96_428)">
<path d="M39.2854 7.65162L50.9381 -1.21826L58.1517 8.45106L46.4987 17.3209L39.2854 7.65162Z" stroke="white" stroke-width="4" stroke-miterlimit="10"/>
</g>
<path d="M34.6553 6.61033L51.2796 -6.03955L62.7831 9.37438L46.1589 22.0242L34.6553 6.61033Z" stroke="white" stroke-width="4" stroke-miterlimit="10"/>
</g>
<path d="M52.2939 12.7707C55.5109 10.3227 56.5029 6.17311 54.5095 3.50219C52.516 0.831287 48.2925 0.650535 45.0753 3.09846C41.8583 5.54638 40.8662 9.69603 42.8595 12.3669C44.8528 15.0378 49.0765 15.2186 52.2939 12.7707Z" fill="white" stroke="black" stroke-width="4" stroke-miterlimit="10"/>
<path d="M45.431 7.16644L46.5887 6.34814L48.0127 8.39392C48.256 8.72127 48.441 9.07195 48.5803 9.45774C48.6612 9.75002 48.6382 10.0656 48.5224 10.3462C48.3718 10.6969 48.1285 10.9892 47.8043 11.1996C47.4221 11.4685 47.0979 11.6204 46.8203 11.6672C46.554 11.714 46.2761 11.6672 46.0214 11.5503C45.7436 11.41 45.5005 11.2113 45.3152 10.9541L46.3109 10.0189C46.3919 10.1475 46.4961 10.2644 46.6119 10.3579C46.6929 10.4163 46.7855 10.4514 46.8897 10.4514C46.9708 10.4514 47.0518 10.4163 47.1097 10.3696C47.2254 10.2994 47.3064 10.1591 47.2951 10.0189C47.2603 9.82014 47.1793 9.62141 47.0518 9.46945L45.431 7.16644ZM48.904 8.46409L49.9577 7.6224C50.0734 7.76268 50.224 7.86785 50.3859 7.92635C50.6174 7.99647 50.8607 7.94969 51.0574 7.79774C51.1967 7.70423 51.3125 7.57562 51.3586 7.41195C51.4283 7.20155 51.3125 6.96771 51.104 6.8976C51.0692 6.88588 51.0344 6.87421 50.9996 6.87421C50.8607 6.86254 50.6174 6.92098 50.2589 7.07294C49.6683 7.31844 49.2052 7.41195 48.8579 7.37689C48.5224 7.34183 48.2094 7.16644 48.0245 6.87421C47.8852 6.67548 47.816 6.44169 47.8043 6.20785C47.8043 5.93901 47.8739 5.67011 48.0245 5.44799C48.2443 5.13237 48.5106 4.86348 48.8349 4.65307C49.321 4.31405 49.7492 4.15039 50.12 4.15039C50.4904 4.15039 50.8377 4.32574 51.1619 4.68814L50.12 5.51816C49.9116 5.24927 49.5177 5.19082 49.2513 5.40122L49.217 5.43632C49.1012 5.50644 49.0198 5.61167 48.9737 5.74028C48.9389 5.83378 48.9619 5.93901 49.0198 6.02084C49.0664 6.07929 49.1356 6.12602 49.217 6.12602C49.3092 6.13774 49.4716 6.09096 49.7031 5.98574C50.2819 5.74028 50.7219 5.6 51.0231 5.55322C51.2777 5.50644 51.544 5.52983 51.7869 5.63505C52.0071 5.72856 52.192 5.89223 52.3196 6.09096C52.4814 6.32475 52.5741 6.60531 52.5859 6.8976C52.5972 7.20155 52.5163 7.49378 52.3544 7.75096C52.1459 8.06663 51.8796 8.33548 51.5671 8.54592C50.9304 8.99011 50.4094 9.17717 49.9925 9.10705C49.5407 9.03689 49.1704 8.8031 48.904 8.46409Z" fill="black"/>
</g>
</g>
</g>
</g>
</svg>
