<svg width="48" height="252" viewBox="0 0 48 252" fill="none" xmlns="http://www.w3.org/2000/svg">
<path d="M6 6H0V-2.38419e-07H6V6Z" fill="#0F2324"/>
<path d="M6 24H0V18H6V24Z" fill="#0F2324"/>
<path d="M6 42H0V36H6V42Z" fill="#0F2324"/>
<path d="M6 60H0V54H6V60Z" fill="#0F2324"/>
<path d="M6 78H0V72H6V78Z" fill="#0F2324"/>
<path d="M6 96H0V90H6V96Z" fill="#0F2324"/>
<path d="M6 114H0V108H6V114Z" fill="#0F2324"/>
<path d="M6 138H0V132H6V138Z" fill="#0F2324"/>
<path d="M6 162H0V156H6V162Z" fill="#0F2324"/>
<path d="M6 186H0V180H6V186Z" fill="#0F2324"/>
<path d="M30 24H24V18H30V24Z" fill="#0F2324"/>
<path d="M30 42H24V36H30V42Z" fill="#0F2324"/>
<path d="M30 60H24V54H30V60Z" fill="#0F2324"/>
<path d="M30 78H24V72H30V78Z" fill="#0F2324"/>
<path d="M30 96H24V90H30V96Z" fill="#0F2324"/>
<path d="M30 114H24V108H30V114Z" fill="#0F2324"/>
<path d="M30 138H24V132H30V138Z" fill="#0F2324"/>
<path d="M30 162H24V156H30V162Z" fill="#0F2324"/>
<path d="M30 186H24V180H30V186Z" fill="#0F2324"/>
<path d="M30 216H24V210H30V216Z" fill="#0F2324"/>
<path d="M30 252H24V246H30V252Z" fill="#0F2324"/>
<path d="M30 6H24V-2.38419e-07H30V6Z" fill="#0F2324"/>
<path d="M18 12H12V6H18V12Z" fill="#0F2324"/>
<path d="M18 30H12V24H18V30Z" fill="#0F2324"/>
<path d="M18 48H12V42H18V48Z" fill="#0F2324"/>
<path d="M18 66H12V60H18V66Z" fill="#0F2324"/>
<path d="M18 84H12V78H18V84Z" fill="#0F2324"/>
<path d="M18 102H12V96H18V102Z" fill="#0F2324"/>
<path d="M18 126H12V120H18V126Z" fill="#0F2324"/>
<path d="M18 150H12V144H18V150Z" fill="#0F2324"/>
<path d="M18 174H12V168H18V174Z" fill="#0F2324"/>
<path d="M18 198H12V192H18V198Z" fill="#0F2324"/>
<path d="M42 12H36V6H42V12Z" fill="#0F2324"/>
<path d="M42 30H36V24H42V30Z" fill="#0F2324"/>
<path d="M42 48H36V42H42V48Z" fill="#0F2324"/>
<path d="M42 66H36V60H42V66Z" fill="#0F2324"/>
<path d="M42 84H36V78H42V84Z" fill="#0F2324"/>
<path d="M42 102H36V96H42V102Z" fill="#0F2324"/>
<path d="M42 126H36V120H42V126Z" fill="#0F2324"/>
<path d="M42 150H36V144H42V150Z" fill="#0F2324"/>
<path d="M42 174H36V168H42V174Z" fill="#0F2324"/>
<path d="M42 198H36V192H42V198Z" fill="#0F2324"/>
<path d="M42 234H36V228H42V234Z" fill="#0F2324"/>
</svg>
