<svg width="248" height="104" viewBox="0 0 248 104" fill="none" xmlns="http://www.w3.org/2000/svg">
<rect x="96" y="56" width="8" height="8" fill="#AEF020"/>
<rect x="128" y="56" width="8" height="8" fill="#AEF020"/>
<rect x="96" y="48" width="8" height="8" fill="#AEF020"/>
<rect x="128" y="48" width="8" height="8" fill="#AEF020"/>
<rect x="104" y="48" width="8" height="8" fill="#AEF020"/>
<rect x="136" y="48" width="8" height="8" fill="#AEF020"/>
<rect x="24" width="24" height="8" fill="#061011"/>
<rect width="24" height="8" transform="matrix(-1 0 0 1 224 0)" fill="#061011"/>
<rect x="16" y="8" width="40" height="8" fill="#061011"/>
<rect width="40" height="8" transform="matrix(-1 0 0 1 232 8)" fill="#061011"/>
<rect x="8" y="16" width="56" height="8" fill="#061011"/>
<rect width="56" height="8" transform="matrix(-1 0 0 1 240 16)" fill="#061011"/>
<rect x="8" y="24" width="64" height="8" fill="#061011"/>
<rect width="64" height="8" transform="matrix(-1 0 0 1 240 24)" fill="#061011"/>
<rect x="8" y="32" width="72" height="8" fill="#061011"/>
<rect width="72" height="8" transform="matrix(-1 0 0 1 240 32)" fill="#061011"/>
<rect x="88" y="32" width="72" height="8" fill="#061011"/>
<rect x="88" y="24" width="24" height="8" fill="#061011"/>
<rect width="24" height="8" transform="matrix(-1 0 0 1 160 24)" fill="#061011"/>
<rect x="88" y="16" width="16" height="8" fill="#061011"/>
<rect width="16" height="8" transform="matrix(-1 0 0 1 160 16)" fill="#061011"/>
<rect x="88" y="8" width="8" height="8" fill="#061011"/>
<rect width="8" height="8" transform="matrix(-1 0 0 1 160 8)" fill="#061011"/>
<rect y="48" width="96" height="8" fill="#061011"/>
<rect y="56" width="16" height="8" fill="#061011"/>
<rect width="16" height="8" transform="matrix(-1 0 0 1 248 56)" fill="#061011"/>
<rect x="24" y="56" width="24" height="8" fill="#061011"/>
<rect x="200" y="56" width="24" height="8" fill="#061011"/>
<rect x="56" y="56" width="40" height="8" fill="#061011"/>
<rect x="88" y="64" width="72" height="8" fill="#061011"/>
<rect x="88" y="72" width="72" height="8" fill="#061011"/>
<rect x="96" y="80" width="56" height="8" fill="#061011"/>
<rect x="104" y="88" width="40" height="8" fill="#061011"/>
<rect x="112" y="96" width="24" height="8" fill="#061011"/>
<rect x="104" y="56" width="24" height="8" fill="#061011"/>
<rect x="136" y="56" width="56" height="8" fill="#061011"/>
<rect x="144" y="48" width="104" height="8" fill="#061011"/>
<rect x="112" y="48" width="16" height="8" fill="#061011"/>
<rect x="56" y="64" width="24" height="8" fill="#061011"/>
<rect x="168" y="64" width="24" height="8" fill="#061011"/>
<rect x="64" y="72" width="8" height="8" fill="#061011"/>
<rect x="176" y="72" width="8" height="8" fill="#061011"/>
<rect x="32" y="64" width="8" height="8" fill="#061011"/>
<rect x="208" y="64" width="8" height="8" fill="#061011"/>
<rect y="64" width="8" height="8" fill="#061011"/>
<rect width="8" height="8" transform="matrix(-1 0 0 1 248 64)" fill="#061011"/>
<rect y="40" width="248" height="8" fill="#061011"/>
</svg>
