<svg width="1440" height="364" viewBox="0 0 1440 364" fill="none" xmlns="http://www.w3.org/2000/svg">
<g clip-path="url(#clip0_98_5983)">
<path d="M10 106.776V111.953H15.5544V117.131H25.9241V122.309H207.393V117.131H191.838V111.953H181.469V106.776H171.099V96.4208H165.914V91.2432H160.729V86.0656H145.175V80.8881H134.805V70.533H129.62V65.3554H124.436V60.1778H108.881V55.0003H93.3267V60.1778H88.1419V65.3554H82.9571V75.7105H72.5874V70.533H51.8482V75.7105H46.6633V86.0656H36.2937V91.2432H31.1089V96.4208H25.9241V101.598H15.5544V106.776H10Z" fill="#5E9094"/>
<path d="M10 111.953H15.5544V117.131H25.9241V122.309H207.393V117.131H191.838V111.953H181.469V106.776H171.099V96.4208H165.914V91.2432H160.729V106.776H150.36V111.953H139.99V117.131H77.7722V111.953H67.4026V106.776H41.4785V101.598H31.1089V96.4208H25.9241V101.598H15.5544V106.776H10V111.953Z" fill="#4C797C"/>
<path d="M72.5876 75.7105V80.888H67.4028V86.0656H82.9573V91.2432H98.5117V86.0656H88.1421V80.888H82.9573V75.7105H72.5876Z" fill="#4C797C"/>
<path d="M103.697 96.4189H98.5117V91.2414H103.697V96.4189Z" fill="#4C797C"/>
<path d="M145.175 86.0638V91.2414H129.62V96.4189H114.066V91.2414H124.436V86.0638H139.99V80.8863H145.175V86.0638Z" fill="#4C797C"/>
<path d="M108.881 101.599H114.066V96.4211H108.881V101.599Z" fill="#4C797C"/>
<path d="M103.696 106.775H108.881V101.598H103.696V106.775Z" fill="#4C797C"/>
<path d="M424.979 290.79V285.638H419.818V280.486H409.496V270.182H414.657V259.879H409.496V254.727H404.335V249.575H399.174V244.423H394.013V239.272H383.691V234.12H368.208V239.272H357.885V244.423H347.563V239.272H337.241V228.968H332.08V223.816H326.919V218.664H321.758V213.513H316.597V208.361H311.436V203.209H301.114V198.057H270.147V203.209H259.825V208.361H254.664V213.513H249.503V218.664H239.181V223.816H228.859V218.664H218.537V213.513H208.215V208.361H187.57V213.513H177.248V218.664H166.926V223.816H161.765V228.968H151.443V239.272H146.282V244.423H141.121V254.727H135.96V265.031H141.121V270.182H146.282V280.486H130.799V285.638H120.476V290.79H110.154V295.941H228.859V290.79H234.02V285.638H239.181V280.486H244.342V290.79H254.664V295.941H347.563V290.79H357.885V285.638H368.208V290.79H373.369V295.941H445.623V290.79H424.979Z" fill="#5E9094"/>
<path d="M110.154 295.941H228.859V290.79H234.02V285.638H239.181V280.486H244.342V290.79H254.664V295.941H347.563V290.79H357.885V285.638H368.208V290.79H373.369V295.941H445.623V290.79H424.979V285.638H419.818V280.486H409.496V270.182H414.657V259.879H409.496V254.727H404.335V275.334H399.174V280.486H388.852V285.638H373.369V280.486H368.208V275.334H352.724V280.486H347.563V285.638H306.275V290.79H275.308V285.638H259.825V280.486H249.503V275.334H244.342V270.182H239.181V275.334H234.02V280.486H223.698V285.638H203.053V290.79H177.248V280.486H166.926V275.334H156.604V270.182H151.443V265.031H146.282V259.879H141.121V254.727H135.96V265.031H141.121V270.182H146.282V280.486H130.799V285.638H120.476V290.79H110.154V295.941Z" fill="#4C797C"/>
<path d="M187.57 259.879H182.409V254.727H187.57V259.879Z" fill="#4C797C"/>
<path d="M228.859 254.727H223.698V249.575H228.859V254.727Z" fill="#4C797C"/>
<path d="M321.758 259.879H316.597V254.727H321.758V259.879Z" fill="#4C797C"/>
<path d="M316.597 265.029H311.436V259.878H316.597V265.029Z" fill="#4C797C"/>
<path d="M203.054 239.271V244.423H192.731V249.575H187.57V254.727H197.892V249.575H208.215V244.423H213.376V249.575H223.698V244.423H218.537V239.271H203.054Z" fill="#4C797C"/>
<path d="M228.858 223.817V228.969H239.181V234.121H244.342V239.273H259.825V244.424H270.147V249.576H285.63V244.424H275.308V239.273H264.986V234.121H259.825V228.969H249.503V223.817H244.342V218.665H239.181V223.817H228.858Z" fill="#4C797C"/>
<path d="M357.885 244.423V249.575H337.241V254.727H321.758V249.575H332.08V244.423H337.241V239.271H347.563V244.423H357.885Z" fill="#4C797C"/>
<path d="M1118.23 348H979.37V342.667H1000.73V337.333H1006.07V332H1011.41V321.333H1016.76V310.667H1022.1V305.333H1032.78V300H1043.46V305.333H1048.8V310.667H1054.14V316H1059.48V310.667H1080.85V316H1086.19V321.333H1091.53V326.667H1102.21V337.333H1112.89V342.667H1118.23V348Z" fill="#5E9094"/>
<path d="M1118.23 348H979.37V342.667H1000.73V337.333H1006.07V332H1011.41V326.667H1016.76V337.333H1027.44V342.667H1064.82V337.333H1086.19V321.333H1091.53V326.667H1102.21V337.333H1112.89V342.667H1118.23V348Z" fill="#4C797C"/>
<path d="M1054.14 316.001H1043.46V321.334H1032.78V316.001H1038.12V310.667H1054.14V316.001Z" fill="#4C797C"/>
<path d="M1027.44 326.667H1032.78V321.334H1027.44V326.667Z" fill="#4C797C"/>
<path d="M558.781 159.885H758.06V152.231H727.402V144.577H719.737V136.923H712.073V121.616H704.408V106.308H696.744V98.654H681.414V91.0001H666.085V98.654H658.421V106.308H650.756V113.962H643.092V106.308H612.433V113.962H604.769V121.616H597.104V129.269H581.775V144.577H566.446V152.231H558.781V159.885Z" fill="#5E9094"/>
<path d="M558.781 159.885H758.06V152.231H727.402V144.577H719.737V136.923H712.073V129.269H704.408V144.577H689.079V152.231H635.427V144.577H604.769V121.616H597.104V129.269H581.775V144.577H566.446V152.231H558.781V159.885Z" fill="#4C797C"/>
<path d="M650.756 113.962H666.085V121.616H681.415V113.962H673.75V106.309H650.756V113.962Z" fill="#4C797C"/>
<path d="M689.079 129.27H681.415V121.616H689.079V129.27Z" fill="#4C797C"/>
<path d="M1160.64 169.583V164.5H1165.73V154.333H1160.64V149.25H1155.55V144.167H1145.37V139.083H1130.09V134H1114.82V139.083H1109.73V154.333H1099.55V144.167H1084.28V149.25H1079.19V159.417H1074.1V164.5H1063.92V169.583H1058.83V174.667H1053.74V179.75H1048.65V184.833H1038.47V189.917H1069.01V195H1150.46V189.917H1155.55V184.833H1160.64V179.75H1170.82V169.583H1160.64Z" fill="#5E9094"/>
<path d="M1038.47 189.917H1069.01V195H1150.46V189.917H1155.55V184.833H1160.64V179.75H1170.82V174.667H1155.55V179.75H1145.37V184.833H1109.73V179.75H1099.55V169.583H1094.46V184.833H1084.28V179.75H1074.1V174.667H1069.01V164.5H1063.92V169.583H1058.83V174.667H1053.74V179.75H1048.65V184.833H1038.47V189.917Z" fill="#4C797C"/>
<path d="M1104.64 154.333V159.417H1114.82V154.333H1125V159.417H1130.09V164.5H1140.28V159.417H1135.19V154.333H1130.09V149.25H1114.82V139.083H1109.73V154.333H1104.64Z" fill="#4C797C"/>
<path d="M1145.37 169.583H1140.28V164.5H1145.37V169.583Z" fill="#4C797C"/>
<path d="M1089.37 164.5H1094.46V169.583H1089.37V164.5Z" fill="#4C797C"/>
<path d="M1182 258.667H1452.62V253.152H1430.53V247.637H1425.01V242.122H1413.96V236.606H1402.92V231.091H1397.39V220.061H1386.35V214.546H1375.3V209.031H1369.78V203.515H1358.73V198H1336.64V203.515H1325.59V209.333H1320.07V214.546H1309.03V220.061H1303.5V231.091H1292.46V220.061H1286.93V214.546H1281.41V209.333L1259.32 209.031V214.546H1242.75V220.061H1231.71V225.576H1226.18V231.091H1220.66V236.606H1204.09V242.122H1198.57V247.637H1187.52V253.152H1182V258.667Z" fill="#5E9094"/>
<path d="M1182 258.667H1452.62V253.152H1430.53V247.637H1425.01V242.122H1413.96V236.606H1402.92V231.091H1397.39V242.122H1408.44V247.637H1413.96V253.152H1386.35V247.637H1375.3V242.122H1364.25V247.637H1342.16V253.152H1286.93V247.637H1275.89V242.122H1259.32V247.637H1248.27V253.152H1237.23V242.122H1231.71V236.606H1226.18V231.091H1220.66V236.606H1204.09V242.122H1198.57V247.637H1187.52V253.152H1182V258.667Z" fill="#4C797C"/>
<path d="M1303.5 231.091H1320.07V236.606H1336.64V231.091H1325.59V225.576H1314.55V214.546H1309.03V220.061H1303.5V231.091Z" fill="#4C797C"/>
<path d="M1342.16 242.121H1336.64V236.606H1342.16V242.121Z" fill="#4C797C"/>
</g>
<defs>
<clipPath id="clip0_98_5983">
<rect width="1440" height="364" fill="white"/>
</clipPath>
</defs>
</svg>
