<svg width="1440" height="364" viewBox="0 0 1440 364" fill="none" xmlns="http://www.w3.org/2000/svg">
<g clip-path="url(#clip0_98_5983)">
<path d="M-26 106.776V111.953H-10.4456V117.131H-0.0759194V122.309H181.393V117.131H165.838V111.953H155.469V106.776H145.099V96.4208H139.914V91.2432H134.729V86.0656H119.175V80.8881H108.805V70.533H103.62V65.3554H98.4356V60.1778H82.8811V55.0003H67.3267V60.1778H62.1419V65.3554H56.9571V75.7105H46.5874V70.533H25.8482V75.7105H20.6633V86.0656H10.2937V91.2432H5.1089V96.4208H-0.0759194V101.598H-10.4456V106.776H-26Z" fill="#5E9094"/>
<path d="M-26 111.953H-10.4456V117.131H-0.0759194V122.309H181.393V117.131H165.838V111.953H155.469V106.776H145.099V96.4208H139.914V91.2432H134.729V106.776H124.36V111.953H113.99V117.131H51.7722V111.953H41.4026V106.776H15.4785V101.598H5.1089V96.4208H-0.0759194V101.598H-10.4456V106.776H-26V111.953Z" fill="#4C797C"/>
<path d="M46.5876 75.7105V80.888H41.4028V86.0656H56.9573V91.2432H72.5117V86.0656H62.1421V80.888H56.9573V75.7105H46.5876Z" fill="#4C797C"/>
<path d="M77.6965 96.4189H72.5117V91.2414H77.6965V96.4189Z" fill="#4C797C"/>
<path d="M119.175 86.0638V91.2414H103.62V96.4189H88.0659V91.2414H98.4356V86.0638H113.99V80.8863H119.175V86.0638Z" fill="#4C797C"/>
<path d="M82.8809 101.599H88.0657V96.4211H82.8809V101.599Z" fill="#4C797C"/>
<path d="M77.6963 106.775H82.8811V101.598H77.6963V106.775Z" fill="#4C797C"/>
<path d="M424.979 290.79V285.638H419.818V280.486H409.496V270.182H414.657V259.879H409.496V254.727H404.335V249.575H399.174V244.423H394.013V239.272H383.691V234.12H368.208V239.272H357.885V244.423H347.563V239.272H337.241V228.968H332.08V223.816H326.919V218.664H321.758V213.513H316.597V208.361H311.436V203.209H301.114V198.057H270.147V203.209H259.825V208.361H254.664V213.513H249.503V218.664H239.181V223.816H228.859V218.664H218.537V213.513H208.215V208.361H187.57V213.513H177.248V218.664H166.926V223.816H161.765V228.968H151.443V239.272H146.282V244.423H141.121V254.727H135.96V265.031H141.121V270.182H146.282V280.486H130.799V285.638H120.476V290.79H110.154V295.941H228.859V290.79H234.02V285.638H239.181V280.486H244.342V290.79H254.664V295.941H347.563V290.79H357.885V285.638H368.208V290.79H373.369V295.941H445.623V290.79H424.979Z" fill="#5E9094"/>
<path d="M110.154 295.941H228.859V290.79H234.02V285.638H239.181V280.486H244.342V290.79H254.664V295.941H347.563V290.79H357.885V285.638H368.208V290.79H373.369V295.941H445.623V290.79H424.979V285.638H419.818V280.486H409.496V270.182H414.657V259.879H409.496V254.727H404.335V275.334H399.174V280.486H388.852V285.638H373.369V280.486H368.208V275.334H352.724V280.486H347.563V285.638H306.275V290.79H275.308V285.638H259.825V280.486H249.503V275.334H244.342V270.182H239.181V275.334H234.02V280.486H223.698V285.638H203.053V290.79H177.248V280.486H166.926V275.334H156.604V270.182H151.443V265.031H146.282V259.879H141.121V254.727H135.96V265.031H141.121V270.182H146.282V280.486H130.799V285.638H120.476V290.79H110.154V295.941Z" fill="#4C797C"/>
<path d="M187.57 259.879H182.409V254.727H187.57V259.879Z" fill="#4C797C"/>
<path d="M228.859 254.727H223.698V249.575H228.859V254.727Z" fill="#4C797C"/>
<path d="M321.758 259.879H316.597V254.727H321.758V259.879Z" fill="#4C797C"/>
<path d="M316.597 265.029H311.436V259.878H316.597V265.029Z" fill="#4C797C"/>
<path d="M203.054 239.271V244.423H192.731V249.575H187.57V254.727H197.892V249.575H208.215V244.423H213.376V249.575H223.698V244.423H218.537V239.271H203.054Z" fill="#4C797C"/>
<path d="M228.858 223.817V228.969H239.181V234.121H244.342V239.273H259.825V244.424H270.147V249.576H285.63V244.424H275.308V239.273H264.986V234.121H259.825V228.969H249.503V223.817H244.342V218.665H239.181V223.817H228.858Z" fill="#4C797C"/>
<path d="M357.885 244.423V249.575H337.241V254.727H321.758V249.575H332.08V244.423H337.241V239.271H347.563V244.423H357.885Z" fill="#4C797C"/>
<path d="M1118.23 348H979.37V342.667H1000.73V337.333H1006.07V332H1011.41V321.333H1016.76V310.667H1022.1V305.333H1032.78V300H1043.46V305.333H1048.8V310.667H1054.14V316H1059.48V310.667H1080.85V316H1086.19V321.333H1091.53V326.667H1102.21V337.333H1112.89V342.667H1118.23V348Z" fill="#5E9094"/>
<path d="M1118.23 348H979.37V342.667H1000.73V337.333H1006.07V332H1011.41V326.667H1016.76V337.333H1027.44V342.667H1064.82V337.333H1086.19V321.333H1091.53V326.667H1102.21V337.333H1112.89V342.667H1118.23V348Z" fill="#4C797C"/>
<path d="M1054.14 316.001H1043.46V321.334H1032.78V316.001H1038.12V310.667H1054.14V316.001Z" fill="#4C797C"/>
<path d="M1027.44 326.667H1032.78V321.334H1027.44V326.667Z" fill="#4C797C"/>
<path d="M558.781 159.885H758.06V152.231H727.402V144.577H719.737V136.923H712.073V121.616H704.408V106.308H696.744V98.654H681.414V91.0001H666.085V98.654H658.421V106.308H650.756V113.962H643.092V106.308H612.433V113.962H604.769V121.616H597.104V129.269H581.775V144.577H566.446V152.231H558.781V159.885Z" fill="#5E9094"/>
<path d="M558.781 159.885H758.06V152.231H727.402V144.577H719.737V136.923H712.073V129.269H704.408V144.577H689.079V152.231H635.427V144.577H604.769V121.616H597.104V129.269H581.775V144.577H566.446V152.231H558.781V159.885Z" fill="#4C797C"/>
<path d="M650.756 113.962H666.085V121.616H681.415V113.962H673.75V106.309H650.756V113.962Z" fill="#4C797C"/>
<path d="M689.079 129.27H681.415V121.616H689.079V129.27Z" fill="#4C797C"/>
<path d="M1170.64 169.583V164.5H1175.73V154.333H1170.64V149.25H1165.55V144.167H1155.37V139.083H1140.09V134H1124.82V139.083H1119.73V154.333H1109.55V144.167H1094.28V149.25H1089.19V159.417H1084.1V164.5H1073.92V169.583H1068.83V174.667H1063.74V179.75H1058.65V184.833H1048.47V189.917H1079.01V195H1160.46V189.917H1165.55V184.833H1170.64V179.75H1180.82V169.583H1170.64Z" fill="#5E9094"/>
<path d="M1048.47 189.917H1079.01V195H1160.46V189.917H1165.55V184.833H1170.64V179.75H1180.82V174.667H1165.55V179.75H1155.37V184.833H1119.73V179.75H1109.55V169.583H1104.46V184.833H1094.28V179.75H1084.1V174.667H1079.01V164.5H1073.92V169.583H1068.83V174.667H1063.74V179.75H1058.65V184.833H1048.47V189.917Z" fill="#4C797C"/>
<path d="M1114.64 154.333V159.417H1124.82V154.333H1135V159.417H1140.09V164.5H1150.28V159.417H1145.19V154.333H1140.09V149.25H1124.82V139.083H1119.73V154.333H1114.64Z" fill="#4C797C"/>
<path d="M1155.37 169.583H1150.28V164.5H1155.37V169.583Z" fill="#4C797C"/>
<path d="M1099.37 164.5H1104.46V169.583H1099.37V164.5Z" fill="#4C797C"/>
<path d="M1192 258.667H1462.62V253.152H1440.53V247.637H1435.01V242.122H1423.96V236.606H1412.92V231.091H1407.39V220.061H1396.35V214.546H1385.3V209.031H1379.78V203.515H1368.73V198H1346.64V203.515H1335.59V209.333H1330.07V214.546H1319.03V220.061H1313.5V231.091H1302.46V220.061H1296.93V214.546H1291.41V209.333L1269.32 209.031V214.546H1252.75V220.061H1241.71V225.576H1236.18V231.091H1230.66V236.606H1214.09V242.122H1208.57V247.637H1197.52V253.152H1192V258.667Z" fill="#5E9094"/>
<path d="M1192 258.667H1462.62V253.152H1440.53V247.637H1435.01V242.122H1423.96V236.606H1412.92V231.091H1407.39V242.122H1418.44V247.637H1423.96V253.152H1396.35V247.637H1385.3V242.122H1374.25V247.637H1352.16V253.152H1296.93V247.637H1285.89V242.122H1269.32V247.637H1258.27V253.152H1247.23V242.122H1241.71V236.606H1236.18V231.091H1230.66V236.606H1214.09V242.122H1208.57V247.637H1197.52V253.152H1192V258.667Z" fill="#4C797C"/>
<path d="M1313.5 231.091H1330.07V236.606H1346.64V231.091H1335.59V225.576H1324.55V214.546H1319.03V220.061H1313.5V231.091Z" fill="#4C797C"/>
<path d="M1352.16 242.121H1346.64V236.606H1352.16V242.121Z" fill="#4C797C"/>
</g>
<defs>
<clipPath id="clip0_98_5983">
<rect width="1440" height="364" fill="white"/>
</clipPath>
</defs>
</svg>
