<svg width="20" height="20" viewBox="0 0 20 20" fill="#AEF020" xmlns="http://www.w3.org/2000/svg">
<path d="M13.3333 11.6667H14.1667V8.33333H13.3333V7.5H12.5V12.5H13.3333V11.6667Z" fill="#AEF020"/>
<path d="M9.16667 2.5V3.33333H8.33333V4.16667H7.5V5H6.66667V5.83333H5.83333V6.66667H5V7.5H4.16667V8.33333H3.33333V9.16667H2.5V10.8333H3.33333V11.6667H4.16667V12.5H5V13.3333H5.83333V14.1667H6.66667V15H7.5V15.8333H8.33333V16.6667H9.16667V17.5H10.8333V2.5H9.16667ZM9.16667 13.3333H8.33333V12.5H7.5V11.6667H6.66667V10.8333H5.83333V9.16667H6.66667V8.33333H7.5V7.5H8.33333V6.66667H9.16667V13.3333Z" fill="#AEF020"/>
<path d="M15.8333 5.83333V5H12.5V6.66667H14.1667V7.5H15V12.5H14.1667V13.3333H12.5V15H15.8333V14.1667H16.6667V5.83333H15.8333Z" fill="#AEF020"/>
</svg>
