<svg width="600" height="175" viewBox="0 0 600 175" fill="none" xmlns="http://www.w3.org/2000/svg">
<rect x="245.406" y="9.70117" width="116.436" height="126.139" fill="#38686B"/>
<rect width="29.1089" height="9.70297" transform="translate(255.109 58.2178)" fill="#152C2E"/>
<rect x="255.109" y="58.2178" width="9.70297" height="9.70297" fill="#152C2E"/>
<rect x="264.812" y="58.2178" width="9.70297" height="9.70297" fill="#152C2E"/>
<rect x="274.515" y="58.2178" width="9.70297" height="9.70297" fill="#152C2E"/>
<rect width="9.70297" height="29.1089" transform="translate(255.109 67.9189)" fill="#152C2E"/>
<rect x="255.109" y="67.9189" width="9.70297" height="9.70297" fill="#152C2E"/>
<rect x="255.109" y="77.6221" width="9.70297" height="9.70297" fill="#152C2E"/>
<rect x="255.109" y="87.3242" width="9.70297" height="9.70297" fill="#152C2E"/>
<rect width="9.70297" height="29.1089" transform="translate(313.327 67.9189)" fill="#152C2E"/>
<rect x="313.327" y="67.9189" width="9.70297" height="9.70297" fill="#152C2E"/>
<rect x="313.327" y="77.6221" width="9.70297" height="9.70297" fill="#152C2E"/>
<rect x="313.327" y="87.3242" width="9.70297" height="9.70297" fill="#152C2E"/>
<rect width="9.70297" height="38.8119" transform="translate(293.921 58.2178)" fill="#152C2E"/>
<rect x="293.921" y="58.2178" width="9.70297" height="9.70297" fill="#152C2E"/>
<rect x="293.921" y="67.9209" width="9.70297" height="9.70297" fill="#152C2E"/>
<rect x="293.921" y="77.624" width="9.70297" height="9.70297" fill="#152C2E"/>
<rect x="293.921" y="87.3271" width="9.70297" height="9.70297" fill="#152C2E"/>
<rect x="264.812" y="77.624" width="9.70297" height="9.70297" fill="#152C2E"/>
<rect x="323.03" y="77.624" width="9.70297" height="9.70297" fill="#152C2E"/>
<rect x="332.733" y="77.624" width="9.70297" height="9.70297" fill="#152C2E"/>
<rect x="332.733" y="67.9189" width="9.70297" height="9.70297" fill="#152C2E"/>
<rect x="274.515" y="67.9189" width="9.70297" height="9.70297" fill="#152C2E"/>
<rect x="274.515" y="87.3271" width="9.70297" height="9.70297" fill="#152C2E"/>
<rect width="29.1089" height="9.70297" transform="translate(313.327 58.2178)" fill="#152C2E"/>
<rect x="313.327" y="58.2178" width="9.70297" height="9.70297" fill="#152C2E"/>
<rect x="323.03" y="58.2178" width="9.70297" height="9.70297" fill="#152C2E"/>
<rect x="332.732" y="58.2178" width="9.70297" height="9.70297" fill="#152C2E"/>
<rect x="235.703" y="9.70117" width="9.70297" height="9.70297" fill="#061011"/>
<rect x="352.139" y="9.70117" width="9.70297" height="9.70297" fill="#061011"/>
<rect x="361.841" y="19.4053" width="9.70297" height="9.70297" fill="#061011"/>
<rect x="361.841" y="29.1084" width="9.70297" height="9.70297" fill="#061011"/>
<rect x="361.841" y="38.8115" width="9.70297" height="9.70297" fill="#061011"/>
<rect x="361.841" y="48.5146" width="9.70297" height="9.70297" fill="#061011"/>
<rect x="361.841" y="58.2168" width="9.70297" height="9.70297" fill="#061011"/>
<rect x="361.841" y="67.9199" width="9.70297" height="9.70297" fill="#061011"/>
<rect x="361.841" y="77.623" width="9.70297" height="9.70297" fill="#061011"/>
<rect x="361.841" y="87.3262" width="9.70297" height="9.70297" fill="#061011"/>
<rect x="361.841" y="97.0293" width="9.70297" height="9.70297" fill="#061011"/>
<rect x="361.841" y="106.732" width="9.70297" height="9.70297" fill="#061011"/>
<rect x="361.841" y="116.435" width="9.70297" height="9.70297" fill="#061011"/>
<rect x="361.841" y="126.138" width="9.70297" height="9.70297" fill="#061011"/>
<rect x="361.841" y="135.841" width="9.70297" height="9.70297" fill="#061011"/>
<rect x="226" y="19.4053" width="9.70297" height="9.70297" fill="#061011"/>
<rect x="226" y="29.1084" width="9.70297" height="9.70297" fill="#061011"/>
<rect x="226" y="38.8115" width="9.70297" height="9.70297" fill="#061011"/>
<rect x="226" y="48.5146" width="9.70297" height="9.70297" fill="#061011"/>
<rect x="226" y="58.2168" width="9.70297" height="9.70297" fill="#061011"/>
<rect x="226" y="67.9199" width="9.70297" height="9.70297" fill="#061011"/>
<rect x="226" y="77.623" width="9.70297" height="9.70297" fill="#061011"/>
<rect x="226" y="87.3262" width="9.70297" height="9.70297" fill="#061011"/>
<rect x="226" y="97.0293" width="9.70297" height="9.70297" fill="#061011"/>
<rect x="226" y="106.732" width="9.70297" height="9.70297" fill="#061011"/>
<rect x="226" y="116.435" width="9.70297" height="9.70297" fill="#061011"/>
<rect x="226" y="126.138" width="9.70297" height="9.70297" fill="#061011"/>
<rect x="226" y="135.841" width="9.70297" height="9.70297" fill="#061011"/>
<rect x="245.406" width="9.70297" height="9.70297" fill="#061011"/>
<rect x="255.109" width="9.70297" height="9.70297" fill="#061011"/>
<rect x="264.812" width="9.70297" height="9.70297" fill="#061011"/>
<rect x="274.515" width="9.70297" height="9.70297" fill="#061011"/>
<rect x="284.218" width="9.70297" height="9.70297" fill="#061011"/>
<rect x="293.92" width="9.70297" height="9.70297" fill="#061011"/>
<rect x="303.624" width="9.70297" height="9.70297" fill="#061011"/>
<rect x="313.327" width="9.70297" height="9.70297" fill="#061011"/>
<rect x="323.03" width="9.70297" height="9.70297" fill="#061011"/>
<rect x="332.733" width="9.70297" height="9.70297" fill="#061011"/>
<rect x="342.436" width="9.70297" height="9.70297" fill="#061011"/>
<rect x="235.703" y="135.843" width="9.70297" height="9.70297" fill="#061011"/>
<rect x="245.406" y="135.843" width="9.70297" height="9.70297" fill="#061011"/>
<rect x="255.109" y="135.843" width="9.70297" height="9.70297" fill="#061011"/>
<rect x="264.812" y="135.843" width="9.70297" height="9.70297" fill="#061011"/>
<rect x="274.515" y="135.843" width="9.70297" height="9.70297" fill="#061011"/>
<rect x="284.218" y="135.843" width="9.70297" height="9.70297" fill="#061011"/>
<rect x="293.921" y="135.843" width="9.70297" height="9.70297" fill="#061011"/>
<rect x="303.624" y="135.843" width="9.70297" height="9.70297" fill="#061011"/>
<rect x="313.327" y="135.843" width="9.70297" height="9.70297" fill="#061011"/>
<rect x="323.03" y="135.843" width="9.70297" height="9.70297" fill="#061011"/>
<rect x="332.733" y="135.843" width="9.70297" height="9.70297" fill="#061011"/>
<rect x="342.436" y="135.843" width="9.70297" height="9.70297" fill="#061011"/>
<rect x="352.139" y="135.843" width="9.70297" height="9.70297" fill="#061011"/>
<rect width="106.733" height="9.70297" transform="translate(245.406 9.70312)" fill="#152C2E"/>
<rect x="245.406" y="9.70312" width="9.70297" height="9.70297" fill="#152C2E"/>
<rect x="255.109" y="9.70312" width="9.70297" height="9.70297" fill="#152C2E"/>
<rect x="264.812" y="9.70312" width="9.70297" height="9.70297" fill="#152C2E"/>
<rect x="274.515" y="9.70312" width="9.70297" height="9.70297" fill="#152C2E"/>
<rect x="284.217" y="9.70312" width="9.70297" height="9.70297" fill="#152C2E"/>
<rect x="293.92" y="9.70312" width="9.70297" height="9.70297" fill="#152C2E"/>
<rect x="303.624" y="9.70312" width="9.70297" height="9.70297" fill="#152C2E"/>
<rect x="313.327" y="9.70312" width="9.70297" height="9.70297" fill="#152C2E"/>
<rect x="323.03" y="9.70312" width="9.70297" height="9.70297" fill="#152C2E"/>
<rect x="332.732" y="9.70312" width="9.70297" height="9.70297" fill="#152C2E"/>
<rect x="342.436" y="9.70312" width="9.70297" height="9.70297" fill="#152C2E"/>
<rect x="245.406" y="19.4053" width="9.70297" height="9.70297" fill="#152C2E"/>
<rect x="264.812" y="19.4053" width="9.70297" height="9.70297" fill="#152C2E"/>
<rect x="274.515" y="29.1104" width="9.70297" height="9.70297" fill="#152C2E"/>
<rect x="342.436" y="19.4053" width="9.70297" height="9.70297" fill="#152C2E"/>
<rect x="352.139" y="19.4053" width="9.70297" height="9.70297" fill="#152C2E"/>
<rect x="352.139" y="29.1084" width="9.70297" height="9.70297" fill="#152C2E"/>
<rect x="352.139" y="38.8115" width="9.70297" height="9.70297" fill="#152C2E"/>
<rect x="352.139" y="48.5146" width="9.70297" height="9.70297" fill="#152C2E"/>
<rect x="352.139" y="58.2168" width="9.70297" height="9.70297" fill="#152C2E"/>
<rect x="352.139" y="67.9199" width="9.70297" height="9.70297" fill="#152C2E"/>
<rect x="352.139" y="77.623" width="9.70297" height="9.70297" fill="#152C2E"/>
<rect x="352.139" y="87.3262" width="9.70297" height="9.70297" fill="#152C2E"/>
<rect x="352.139" y="97.0293" width="9.70297" height="9.70297" fill="#152C2E"/>
<rect x="352.139" y="106.732" width="9.70297" height="9.70297" fill="#152C2E"/>
<rect x="352.139" y="116.435" width="9.70297" height="9.70297" fill="#152C2E"/>
<rect x="352.139" y="126.138" width="9.70297" height="9.70297" fill="#152C2E"/>
<rect x="245.406" y="126.141" width="9.70297" height="9.70297" fill="#152C2E"/>
<rect x="313.327" y="106.733" width="9.70297" height="9.70297" fill="#152C2E"/>
<rect x="323.03" y="106.733" width="9.70297" height="9.70297" fill="#152C2E"/>
<rect x="332.733" y="126.141" width="9.70297" height="9.70297" fill="#152C2E"/>
<rect x="342.436" y="126.141" width="9.70297" height="9.70297" fill="#152C2E"/>
<rect x="323.03" y="116.436" width="9.70297" height="9.70297" fill="#152C2E"/>
<rect x="332.733" y="116.436" width="9.70297" height="9.70297" fill="#152C2E"/>
<rect x="342.436" y="116.436" width="9.70297" height="9.70297" fill="#152C2E"/>
<rect x="235.703" y="19.4053" width="9.70297" height="9.70297" fill="#152C2E"/>
<rect x="235.703" y="29.1084" width="9.70297" height="9.70297" fill="#152C2E"/>
<rect x="235.703" y="38.8115" width="9.70297" height="9.70297" fill="#152C2E"/>
<rect x="235.703" y="48.5146" width="9.70297" height="9.70297" fill="#152C2E"/>
<rect x="235.703" y="58.2168" width="9.70297" height="9.70297" fill="#152C2E"/>
<rect x="235.703" y="67.9199" width="9.70297" height="9.70297" fill="#152C2E"/>
<rect x="235.703" y="77.623" width="9.70297" height="9.70297" fill="#152C2E"/>
<rect x="235.703" y="87.3262" width="9.70297" height="9.70297" fill="#152C2E"/>
<rect x="235.703" y="97.0293" width="9.70297" height="9.70297" fill="#152C2E"/>
<rect x="235.703" y="106.732" width="9.70297" height="9.70297" fill="#152C2E"/>
<rect x="235.703" y="116.435" width="9.70297" height="9.70297" fill="#152C2E"/>
<rect x="235.703" y="126.138" width="9.70297" height="9.70297" fill="#152C2E"/>
<rect x="-1" y="135" width="227" height="10" fill="#061011"/>
<rect x="204.168" y="125.169" width="21.8317" height="10.1881" fill="#061011"/>
<rect x="371.544" y="125.169" width="21.8317" height="10.1881" fill="#061011"/>
<rect x="151" y="145" width="129" height="10" fill="#061011"/>
<rect x="119" y="155" width="204" height="10" fill="#061011"/>
<rect x="421" y="155" width="88" height="10" fill="#061011"/>
<rect x="195" y="165" width="242" height="10" fill="#061011"/>
<rect x="31" y="145" width="88" height="10" fill="#061011"/>
<rect x="300" y="145" width="259" height="10" fill="#061011"/>
<rect x="216" y="145.545" width="10.1881" height="10.1881" fill="#0A1A1B"/>
<rect x="485" y="145.545" width="10.1881" height="10.1881" fill="#0A1A1B"/>
<rect x="367" y="135" width="266" height="11" fill="#061011"/>
<rect x="132.42" y="81.1533" width="5.20984" height="5.20984" fill="#061011"/>
<rect x="137.629" y="81.1533" width="5.20984" height="5.20984" fill="#061011"/>
<rect x="137.629" y="107.203" width="5.20984" height="5.20984" fill="#061011"/>
<rect x="142.839" y="107.203" width="5.20984" height="5.20984" fill="#061011"/>
<rect x="148.049" y="107.203" width="5.20984" height="5.20984" fill="#061011"/>
<rect x="153.259" y="107.203" width="5.20984" height="5.20984" fill="#061011"/>
<rect x="158.469" y="107.203" width="5.20984" height="5.20984" fill="#061011"/>
<rect x="163.678" y="107.203" width="5.20984" height="5.20984" fill="#061011"/>
<rect x="168.888" y="107.203" width="5.20984" height="5.20984" fill="#061011"/>
<rect x="168.888" y="81.1533" width="5.20984" height="5.20984" fill="#061011"/>
<rect x="174.098" y="81.1533" width="5.20984" height="5.20984" fill="#061011"/>
<rect x="142.839" y="86.3633" width="5.20984" height="5.20984" fill="#061011"/>
<rect x="174.098" y="101.993" width="5.20984" height="5.20984" fill="#061011"/>
<rect x="127.21" y="86.3633" width="5.20984" height="5.20984" fill="#061011"/>
<rect x="127.21" y="91.5732" width="5.20984" height="5.20984" fill="#061011"/>
<rect x="127.21" y="96.7832" width="5.20984" height="5.20984" fill="#061011"/>
<rect x="179.308" y="86.3633" width="5.20984" height="5.20984" fill="#061011"/>
<rect x="179.308" y="91.5732" width="5.20984" height="5.20984" fill="#061011"/>
<rect x="179.308" y="96.7832" width="5.20984" height="5.20984" fill="#061011"/>
<rect x="163.678" y="86.3633" width="5.20984" height="5.20984" fill="#061011"/>
<rect width="5.20984" height="26.0492" transform="translate(153.259 112.412)" fill="#061011"/>
<rect x="153.259" y="112.412" width="5.20984" height="5.20984" fill="#061011"/>
<rect x="153.259" y="117.622" width="5.20984" height="5.20984" fill="#061011"/>
<rect x="153.259" y="122.832" width="5.20984" height="5.20984" fill="#061011"/>
<rect x="153.259" y="128.042" width="5.20984" height="5.20984" fill="#061011"/>
<rect x="153.259" y="133.252" width="5.20984" height="5.20984" fill="#061011"/>
<rect x="148.049" y="81.1533" width="5.20984" height="5.20984" fill="#061011"/>
<rect x="153.259" y="81.1533" width="5.20984" height="5.20984" fill="#061011"/>
<rect x="158.469" y="81.1533" width="5.20984" height="5.20984" fill="#061011"/>
<path fill-rule="evenodd" clip-rule="evenodd" d="M142.839 86.3633H132.42V101.993H137.63V107.201H142.839V101.993H142.839V86.3633ZM168.889 86.3633H179.308V101.993H174.098V107.201H168.889V107.202H142.839V91.5727H148.049V86.3633H153.259H158.469V91.5727H158.469V86.3633H163.679V91.5727H168.889L168.889 86.3633Z" fill="#693159"/>
<rect x="132.42" y="101.992" width="5.20984" height="5.20984" fill="#061011"/>
<rect width="5.20984" height="5.20984" transform="matrix(-1 0 0 1 132.419 122.83)" fill="#103335"/>
<rect width="5.20984" height="5.20984" transform="matrix(-1 0 0 1 137.629 122.83)" fill="#103335"/>
<rect width="5.20984" height="5.20984" transform="matrix(-1 0 0 1 137.629 128.039)" fill="#103335"/>
<rect width="5.20984" height="5.20984" transform="matrix(-1 0 0 1 142.839 128.039)" fill="#103335"/>
<rect width="5.20984" height="5.20984" transform="matrix(-1 0 0 1 148.049 128.042)" fill="#061011"/>
<rect width="5.20984" height="5.20984" transform="matrix(-1 0 0 1 148.049 133.252)" fill="#061011"/>
<rect width="5.20984" height="5.20984" transform="matrix(-1 0 0 1 142.839 122.832)" fill="#061011"/>
<rect width="5.20984" height="5.20984" transform="matrix(-1 0 0 1 137.629 117.622)" fill="#061011"/>
<rect width="5.20984" height="5.20984" transform="matrix(-1 0 0 1 132.419 117.622)" fill="#061011"/>
<rect width="5.20984" height="5.20984" transform="matrix(-1 0 0 1 127.21 122.832)" fill="#061011"/>
<rect width="5.20984" height="5.20984" transform="matrix(-1 0 0 1 132.42 128.042)" fill="#061011"/>
<rect width="5.20984" height="5.20984" transform="matrix(-1 0 0 1 142.839 133.251)" fill="#061011"/>
<rect width="5.20984" height="5.20984" transform="matrix(-1 0 0 1 137.63 133.251)" fill="#061011"/>
<rect x="179.308" y="122.83" width="5.20984" height="5.20984" fill="#103335"/>
<rect x="174.098" y="122.83" width="5.20984" height="5.20984" fill="#103335"/>
<rect x="174.098" y="128.039" width="5.20984" height="5.20984" fill="#103335"/>
<rect x="168.889" y="128.039" width="5.20984" height="5.20984" fill="#103335"/>
<rect x="163.679" y="128.042" width="5.20984" height="5.20984" fill="#061011"/>
<rect x="163.679" y="133.252" width="5.20984" height="5.20984" fill="#061011"/>
<rect x="168.889" y="122.832" width="5.20984" height="5.20984" fill="#061011"/>
<rect x="174.098" y="117.622" width="5.20984" height="5.20984" fill="#061011"/>
<rect x="179.308" y="117.622" width="5.20984" height="5.20984" fill="#061011"/>
<rect x="184.518" y="122.832" width="5.20984" height="5.20984" fill="#061011"/>
<rect x="179.308" y="128.042" width="5.20984" height="5.20984" fill="#061011"/>
<rect x="168.889" y="133.251" width="5.20984" height="5.20984" fill="#061011"/>
<rect x="174.098" y="133.251" width="5.20984" height="5.20984" fill="#061011"/>
<rect x="435.42" y="81.1533" width="5.20984" height="5.20984" fill="#061011"/>
<rect x="440.63" y="81.1533" width="5.20984" height="5.20984" fill="#061011"/>
<rect x="440.629" y="107.203" width="5.20984" height="5.20984" fill="#061011"/>
<rect x="445.839" y="107.203" width="5.20984" height="5.20984" fill="#061011"/>
<rect x="451.049" y="107.203" width="5.20984" height="5.20984" fill="#061011"/>
<rect x="456.259" y="107.203" width="5.20984" height="5.20984" fill="#061011"/>
<rect x="461.469" y="107.203" width="5.20984" height="5.20984" fill="#061011"/>
<rect x="466.679" y="107.203" width="5.20984" height="5.20984" fill="#061011"/>
<rect x="471.889" y="107.203" width="5.20984" height="5.20984" fill="#061011"/>
<rect x="471.889" y="81.1533" width="5.20984" height="5.20984" fill="#061011"/>
<rect x="477.099" y="81.1533" width="5.20984" height="5.20984" fill="#061011"/>
<rect x="445.839" y="86.3633" width="5.20984" height="5.20984" fill="#061011"/>
<rect x="477.099" y="101.993" width="5.20984" height="5.20984" fill="#061011"/>
<rect x="430.21" y="86.3633" width="5.20984" height="5.20984" fill="#061011"/>
<rect x="430.21" y="91.5732" width="5.20984" height="5.20984" fill="#061011"/>
<rect x="430.21" y="96.7832" width="5.20984" height="5.20984" fill="#061011"/>
<rect x="482.308" y="86.3633" width="5.20984" height="5.20984" fill="#061011"/>
<rect x="482.308" y="91.5732" width="5.20984" height="5.20984" fill="#061011"/>
<rect x="482.308" y="96.7832" width="5.20984" height="5.20984" fill="#061011"/>
<rect x="466.679" y="86.3633" width="5.20984" height="5.20984" fill="#061011"/>
<rect width="5.20984" height="26.0492" transform="translate(456.259 112.412)" fill="#061011"/>
<rect x="456.259" y="112.412" width="5.20984" height="5.20984" fill="#061011"/>
<rect x="456.259" y="117.622" width="5.20984" height="5.20984" fill="#061011"/>
<rect x="456.259" y="122.832" width="5.20984" height="5.20984" fill="#061011"/>
<rect x="456.259" y="128.042" width="5.20984" height="5.20984" fill="#061011"/>
<rect x="456.259" y="133.252" width="5.20984" height="5.20984" fill="#061011"/>
<rect x="451.049" y="81.1533" width="5.20984" height="5.20984" fill="#061011"/>
<rect x="456.259" y="81.1533" width="5.20984" height="5.20984" fill="#061011"/>
<rect x="461.469" y="81.1533" width="5.20984" height="5.20984" fill="#061011"/>
<path fill-rule="evenodd" clip-rule="evenodd" d="M445.839 86.3633H435.419V101.993H440.629V107.201H445.839V101.993H445.839V86.3633ZM471.888 86.3633H482.308V101.993H477.098V107.201H471.888V107.202H445.839V91.5727H451.049V86.3633H456.259H461.469V91.5727H461.469V86.3633H466.678V91.5727H471.888L471.888 86.3633Z" fill="#693159"/>
<rect x="435.419" y="101.992" width="5.20984" height="5.20984" fill="#061011"/>
<rect width="5.20984" height="5.20984" transform="matrix(-1 0 0 1 435.419 122.83)" fill="#103335"/>
<rect width="5.20984" height="5.20984" transform="matrix(-1 0 0 1 440.629 122.83)" fill="#103335"/>
<rect width="5.20984" height="5.20984" transform="matrix(-1 0 0 1 440.629 128.039)" fill="#103335"/>
<rect width="5.20984" height="5.20984" transform="matrix(-1 0 0 1 445.839 128.039)" fill="#103335"/>
<rect width="5.20984" height="5.20984" transform="matrix(-1 0 0 1 451.049 128.042)" fill="#061011"/>
<rect width="5.20984" height="5.20984" transform="matrix(-1 0 0 1 451.049 133.252)" fill="#061011"/>
<rect width="5.20984" height="5.20984" transform="matrix(-1 0 0 1 445.839 122.832)" fill="#061011"/>
<rect width="5.20984" height="5.20984" transform="matrix(-1 0 0 1 440.63 117.622)" fill="#061011"/>
<rect width="5.20984" height="5.20984" transform="matrix(-1 0 0 1 435.42 117.622)" fill="#061011"/>
<rect width="5.20984" height="5.20984" transform="matrix(-1 0 0 1 430.21 122.832)" fill="#061011"/>
<rect width="5.20984" height="5.20984" transform="matrix(-1 0 0 1 435.42 128.042)" fill="#061011"/>
<rect width="5.20984" height="5.20984" transform="matrix(-1 0 0 1 445.839 133.251)" fill="#061011"/>
<rect width="5.20984" height="5.20984" transform="matrix(-1 0 0 1 440.629 133.251)" fill="#061011"/>
<rect x="482.309" y="122.83" width="5.20984" height="5.20984" fill="#103335"/>
<rect x="477.099" y="122.83" width="5.20984" height="5.20984" fill="#103335"/>
<rect x="477.099" y="128.039" width="5.20984" height="5.20984" fill="#103335"/>
<rect x="471.889" y="128.039" width="5.20984" height="5.20984" fill="#103335"/>
<rect x="466.679" y="128.042" width="5.20984" height="5.20984" fill="#061011"/>
<rect x="466.679" y="133.252" width="5.20984" height="5.20984" fill="#061011"/>
<rect x="471.889" y="122.832" width="5.20984" height="5.20984" fill="#061011"/>
<rect x="477.099" y="117.622" width="5.20984" height="5.20984" fill="#061011"/>
<rect x="482.309" y="117.622" width="5.20984" height="5.20984" fill="#061011"/>
<rect x="487.518" y="122.832" width="5.20984" height="5.20984" fill="#061011"/>
<rect x="482.308" y="128.042" width="5.20984" height="5.20984" fill="#061011"/>
<rect x="471.889" y="133.251" width="5.20984" height="5.20984" fill="#061011"/>
<rect x="477.099" y="133.251" width="5.20984" height="5.20984" fill="#061011"/>
</svg>
