<svg width="96" height="36" viewBox="0 0 96 36" fill="none" xmlns="http://www.w3.org/2000/svg">
<g clip-path="url(#clip0_98_18269)">
<mask id="mask0_98_18269" style="mask-type:luminance" maskUnits="userSpaceOnUse" x="0" y="0" width="96" height="36">
<path d="M96 0H0.292725V36H96V0Z" fill="white"/>
</mask>
<g mask="url(#mask0_98_18269)">
<mask id="mask1_98_18269" style="mask-type:luminance" maskUnits="userSpaceOnUse" x="0" y="0" width="96" height="36">
<path d="M96 0H0.292725V36H96V0Z" fill="white"/>
</mask>
<g mask="url(#mask1_98_18269)">
<path d="M49.7046 11.9239L54.2579 11.6258C54.3618 12.3798 54.5523 12.9409 54.8638 13.3443C55.366 13.9755 56.0585 14.2912 56.9761 14.2912C57.6513 14.2912 58.188 14.1334 58.5516 13.8002C58.8979 13.5372 59.1056 13.1163 59.1056 12.6779C59.1056 12.2571 58.9152 11.8538 58.5863 11.5907C58.2399 11.2751 57.4262 10.9594 56.1451 10.6789C54.0502 10.2054 52.544 9.57414 51.6609 8.76753C50.778 8.01351 50.2759 6.90881 50.3106 5.73395C50.3106 4.92732 50.553 4.1207 51.0031 3.45435C51.5225 2.70033 52.2323 2.10413 53.0807 1.77096C53.9983 1.36765 55.2794 1.15723 56.8895 1.15723C58.8632 1.15723 60.3694 1.52546 61.4083 2.27948C62.4471 3.01598 63.0704 4.20837 63.2608 5.83916L58.7593 6.10218C58.6381 5.40077 58.3957 4.89225 57.9977 4.55907C57.5994 4.22591 57.0801 4.06809 56.4047 4.06809C55.8508 4.06809 55.4352 4.19084 55.1581 4.41879C54.8985 4.62921 54.7254 4.94486 54.7427 5.29556C54.7427 5.55858 54.8812 5.80409 55.0889 5.9619C55.314 6.17232 55.8508 6.36521 56.699 6.54057C58.794 6.99648 60.283 7.45241 61.2006 7.92584C62.1181 8.39928 62.776 8.97795 63.1742 9.66182C63.5898 10.3632 63.7975 11.1699 63.7802 11.994C63.7802 12.976 63.5032 13.958 62.9492 14.7821C62.3779 15.6414 61.5814 16.3077 60.6465 16.7111C59.6597 17.1495 58.4131 17.3774 56.9241 17.3774C54.2926 17.3774 52.4747 16.8689 51.4532 15.8343C50.4317 14.7997 49.8257 13.5021 49.7046 11.9239ZM1.38346 17.1144V1.43779H9.36486C10.8364 1.43779 11.9792 1.56054 12.7582 1.82357C13.52 2.06906 14.1952 2.57759 14.6454 3.26147C15.1474 4.01547 15.3898 4.89225 15.3726 5.80407C15.4245 7.34715 14.6454 8.82012 13.3122 9.59172C12.7929 9.88982 12.2215 10.1002 11.6328 10.2054C12.0657 10.3282 12.4985 10.5386 12.8794 10.7841C13.1737 11.0296 13.4161 11.3102 13.6412 11.6083C13.9009 11.9064 14.1259 12.2396 14.3164 12.5902L16.6364 17.1318H11.2001L8.6377 12.3096C8.3087 11.696 8.03172 11.2926 7.77204 11.0998C7.42573 10.8543 7.01024 10.7315 6.59472 10.7315H6.1792V17.0969H1.38346V17.1144ZM6.1792 7.78559H8.20483C8.6377 7.7505 9.05317 7.68033 9.46874 7.57515C9.78034 7.52258 10.0573 7.34715 10.2478 7.08414C10.7153 6.4529 10.646 5.55858 10.0746 5.015C9.76304 4.75196 9.15705 4.61168 8.29139 4.61168H6.1792V7.78559ZM0.292725 30.5465L4.84609 30.2483C4.94998 31.0023 5.14042 31.5635 5.45205 31.9668C5.93682 32.598 6.64666 32.9312 7.5643 32.9312C8.23945 32.9312 8.77619 32.7734 9.13974 32.4402C9.48604 32.1596 9.69378 31.7564 9.69378 31.3179C9.69378 30.897 9.50336 30.4938 9.17436 30.2309C8.82813 29.9151 8.0144 29.5995 6.71591 29.319C4.62103 28.8455 3.11477 28.2143 2.2318 27.4076C1.34883 26.6535 0.846747 25.5488 0.881372 24.374C0.881372 23.5674 1.12376 22.7607 1.5739 22.0944C2.09329 21.3404 2.80313 20.7441 3.65148 20.411C4.56908 20.0076 5.85025 19.7972 7.46036 19.7972C9.4341 19.7972 10.9403 20.1654 11.9792 20.9195C13.0179 21.6735 13.6239 22.8485 13.8143 24.4793L9.31293 24.7422C9.19168 24.0408 8.94932 23.5323 8.55114 23.199C8.17021 22.8659 7.63355 22.7082 6.95831 22.7256C6.40428 22.7256 5.98876 22.8485 5.71175 23.0939C5.43473 23.3043 5.27893 23.6199 5.29624 23.9706C5.29624 24.2337 5.43473 24.4793 5.64251 24.6371C5.86757 24.8475 6.40428 25.0403 7.25263 25.2156C9.34755 25.6716 10.8364 26.1275 11.754 26.601C12.6716 27.0744 13.3295 27.6531 13.7278 28.337C14.1433 29.0384 14.351 29.8449 14.351 30.6516C14.351 31.6337 14.0567 32.598 13.52 33.4221C12.9487 34.2815 12.1523 34.9478 11.2174 35.3511C10.2305 35.7894 8.98393 36.0174 7.49498 36.0174C4.86341 36.0174 3.04552 35.5089 2.02404 34.4742C1.00256 33.4221 0.43123 32.1246 0.292725 30.5465Z" fill="white"/>
<path d="M23.3188 29.3176L27.5087 30.5977C27.2834 31.6673 26.8161 32.6843 26.1755 33.5786C25.5867 34.3678 24.8078 34.9814 23.9249 35.3848C23.0245 35.7881 21.8818 35.9986 20.4967 35.9986C18.8174 35.9986 17.4323 35.753 16.3763 35.2621C15.3028 34.7711 14.3851 33.8942 13.606 32.6492C12.827 31.4042 12.446 29.8085 12.446 27.8621C12.446 25.267 13.1213 23.2679 14.489 21.8825C15.8569 20.4973 17.7785 19.7959 20.2717 19.7959C22.2282 19.7959 23.7515 20.1992 24.877 20.9882C25.9851 21.7949 26.8161 23.0224 27.3702 24.6707L23.1457 25.6177C23.0418 25.2494 22.886 24.8812 22.6783 24.5654C22.4185 24.1972 22.0895 23.9167 21.6914 23.7062C21.2931 23.4959 20.8431 23.4082 20.3928 23.4082C19.3022 23.4082 18.471 23.8466 17.8998 24.7408C17.467 25.3897 17.242 26.4242 17.242 27.827C17.242 29.5631 17.5016 30.7555 18.0211 31.4042C18.5403 32.0531 19.2675 32.3687 20.2198 32.3687C21.1374 32.3687 21.8299 32.1056 22.2974 31.5971C22.7647 31.0535 23.1111 30.2995 23.3188 29.3176ZM33.1008 20.059H37.8791V25.5475H43.1078V20.059H47.9209V35.7355H43.1078V29.3878H37.8791V35.7355H33.1008V20.059Z" fill="white"/>
<path d="M47.2644 27.8972C47.2644 25.337 47.9743 23.338 49.3765 21.9176C50.779 20.4973 52.7526 19.7783 55.2631 19.7783C57.8428 19.7783 59.8164 20.4797 61.2188 21.8825C62.6212 23.2853 63.3138 25.2494 63.3138 27.7744C63.3138 29.6156 63.0021 31.1062 62.3962 32.281C61.8076 33.4384 60.89 34.3852 59.7645 35.0165C58.6045 35.6654 57.1676 35.9986 55.4535 35.9986C53.7049 35.9986 52.268 35.7179 51.1253 35.1568C49.9479 34.5605 48.9785 33.6313 48.3378 32.4914C47.6279 31.264 47.2644 29.7385 47.2644 27.8972ZM52.0429 27.9146C52.0429 29.4929 52.3372 30.6326 52.9084 31.3342C53.4798 32.018 54.2763 32.3687 55.2805 32.3687C56.3019 32.3687 57.0983 32.0354 57.6696 31.3516C58.241 30.6677 58.5179 29.4578 58.5179 27.7043C58.5179 26.2313 58.2236 25.1441 57.635 24.4778C57.0463 23.7938 56.25 23.4607 55.2458 23.4607C54.3629 23.4257 53.5145 23.8115 52.9258 24.4954C52.3372 25.1792 52.0429 26.3189 52.0429 27.9146ZM68.2134 27.8972C68.2134 25.337 68.9233 23.338 70.3257 21.9176C71.7279 20.4973 73.7019 19.7783 76.2121 19.7783C78.792 19.7783 80.7829 20.4797 82.1678 21.8825C83.5527 23.2853 84.2628 25.2494 84.2628 27.7744C84.2628 29.6156 83.951 31.1062 83.3452 32.281C82.7569 33.4384 81.8391 34.3852 80.7132 35.0165C79.5534 35.6654 78.1164 35.9986 76.4028 35.9986C74.654 35.9986 73.2171 35.7179 72.0741 35.1568C70.8968 34.5605 69.9273 33.6313 69.2868 32.4914C68.5769 31.264 68.2134 29.7385 68.2134 27.8972ZM72.9919 27.9146C72.9919 29.4929 73.286 30.6326 73.8574 31.3342C74.4288 32.018 75.2254 32.3687 76.2296 32.3687C77.2509 32.3687 78.0475 32.0354 78.6189 31.3516C79.1903 30.6677 79.4669 29.4578 79.4669 27.7043C79.4669 26.2313 79.1726 25.1441 78.5837 24.4778C77.9954 23.7938 77.1988 23.4607 76.1945 23.4607C75.312 23.4257 74.4465 23.8115 73.8751 24.4954C73.286 25.1792 72.9919 26.3189 72.9919 27.9146Z" fill="white"/>
<path d="M83.7591 20.0596H88.5374V31.8784H95.9991V35.7362H83.7416V20.0596H83.7591Z" fill="white"/>
<mask id="mask2_98_18269" style="mask-type:luminance" maskUnits="userSpaceOnUse" x="62" y="2" width="22" height="20">
<path d="M78.4929 19.1538C83.3035 15.4818 84.787 9.25747 81.806 5.25109C78.825 1.24473 72.5091 0.973605 67.698 4.6455C62.8871 8.31738 61.4036 14.5419 64.3844 18.5481C67.3653 22.5545 73.6815 22.8257 78.4929 19.1538Z" fill="white"/>
</mask>
<g mask="url(#mask2_98_18269)">
<mask id="mask3_98_18269" style="mask-type:luminance" maskUnits="userSpaceOnUse" x="52" y="-10" width="43" height="44">
<path d="M52.1156 9.9133L76.976 -9.06152L94.1787 14.0594L69.3184 33.0341L52.1156 9.9133Z" fill="white"/>
</mask>
<g mask="url(#mask3_98_18269)">
<path d="M78.4928 19.1538C83.3036 15.4818 84.7871 9.25747 81.8061 5.25109C78.825 1.24473 72.509 0.973605 67.698 4.6455C62.8872 8.31738 61.4036 14.5419 64.3844 18.5481C67.3652 22.5545 73.6815 22.8257 78.4928 19.1538Z" stroke="white" stroke-width="4" stroke-miterlimit="10"/>
<path d="M68.2303 10.7467L69.9616 9.51928L72.091 12.588C72.4549 13.079 72.7315 13.605 72.9399 14.1837C73.0608 14.6221 73.0264 15.0954 72.8533 15.5163C72.6281 16.0423 72.2642 16.4808 71.7794 16.7964C71.2078 17.1997 70.723 17.4276 70.3079 17.4978C69.9097 17.568 69.4941 17.4978 69.1132 17.3224C68.6978 17.112 68.3342 16.8139 68.0571 16.4281L69.5461 15.0253C69.6673 15.2182 69.8231 15.3936 69.9962 15.5338C70.1174 15.6214 70.2559 15.6741 70.4117 15.6741C70.533 15.6741 70.6541 15.6214 70.7407 15.5514C70.9137 15.4461 71.0348 15.2356 71.0179 15.0253C70.9659 14.7273 70.8448 14.4292 70.6541 14.2012L68.2303 10.7467ZM73.4239 12.6932L74.9997 11.4307C75.1727 11.6411 75.3979 11.7988 75.64 11.8866C75.9862 11.9918 76.35 11.9216 76.6442 11.6937C76.8525 11.5534 77.0257 11.3605 77.0946 11.115C77.1988 10.7994 77.0257 10.4486 76.7139 10.3435C76.6618 10.3259 76.6098 10.3084 76.5577 10.3084C76.35 10.2909 75.9862 10.3785 75.4501 10.6065C74.5669 10.9747 73.8743 11.115 73.355 11.0624C72.8533 11.0098 72.3852 10.7467 72.1087 10.3084C71.9004 10.0103 71.7969 9.65961 71.7794 9.30885C71.7794 8.90559 71.8835 8.50224 72.1087 8.16906C72.4374 7.69563 72.8356 7.29229 73.3206 6.97668C74.0475 6.46815 74.6879 6.22266 75.2424 6.22266C75.7963 6.22266 76.3156 6.48568 76.8004 7.02928L75.2424 8.27431C74.9307 7.87098 74.3417 7.7833 73.9433 8.0989L73.892 8.15155C73.7188 8.25673 73.5971 8.41458 73.5281 8.60749C73.4761 8.74774 73.5105 8.90559 73.5971 9.02833C73.6668 9.11601 73.7703 9.1861 73.892 9.1861C74.0299 9.20368 74.2727 9.13351 74.6189 8.97568C75.4845 8.60749 76.1425 8.39707 76.5929 8.3269C76.9736 8.25673 77.3718 8.29182 77.7351 8.44965C78.0644 8.58991 78.3409 8.83542 78.5317 9.13351C78.7737 9.4842 78.9123 9.90504 78.9299 10.3435C78.9468 10.7994 78.8258 11.2377 78.5837 11.6235C78.2719 12.097 77.8737 12.5003 77.4064 12.816C76.4542 13.4822 75.6751 13.7628 75.0517 13.6576C74.3761 13.5524 73.8223 13.2017 73.4239 12.6932Z" fill="white"/>
</g>
</g>
</g>
</g>
</g>
<defs>
<clipPath id="clip0_98_18269">
<rect width="95.7073" height="36" fill="white" transform="translate(0.292725)"/>
</clipPath>
</defs>
</svg>
