<svg width="75" height="76" viewBox="0 0 75 76" fill="none" xmlns="http://www.w3.org/2000/svg">
<g opacity="0.3">
<path d="M17.9229 50.208H23.2621V55.5473H17.9229V50.208Z" fill="#112C2F"/>
<path d="M12.5835 55.5479H17.9228V60.8871H12.5835V55.5479Z" fill="#112C2F"/>
<path d="M7.24414 60.8867H12.5834V66.226H7.24414V60.8867Z" fill="#112C2F"/>
<path d="M1.90479 66.2275H7.24407V71.5668H1.90479V66.2275Z" fill="#112C2F"/>
<path d="M23.2617 44.8691H28.601V50.2084H23.2617V44.8691Z" fill="#112C2F"/>
<path d="M28.6011 39.5293H33.9404V44.8686H28.6011V39.5293Z" fill="#112C2F"/>
<path d="M39.2798 28.8525H44.6191V34.1918H39.2798V28.8525Z" fill="#112C2F"/>
<path d="M44.6191 23.5117H49.9584V28.851H44.6191V23.5117Z" fill="#112C2F"/>
<path d="M49.9585 18.1729H55.2978V23.5121H49.9585V18.1729Z" fill="#112C2F"/>
<path d="M55.2979 12.833H60.6371V18.1723H55.2979V12.833Z" fill="#112C2F"/>
<path d="M60.6367 7.49414H65.976V12.8334H60.6367V7.49414Z" fill="#112C2F"/>
<path d="M65.9761 2.1543H71.3154V7.49358H65.9761V2.1543Z" fill="#112C2F"/>
<path d="M55.2979 50.208H49.9586V55.5473H55.2979V50.208Z" fill="#112C2F"/>
<path d="M60.6367 55.5479H55.2974V60.8871H60.6367V55.5479Z" fill="#112C2F"/>
<path d="M65.9761 60.8867H60.6368V66.226H65.9761V60.8867Z" fill="#112C2F"/>
<path d="M71.3154 66.2275H65.9761V71.5668H71.3154V66.2275Z" fill="#112C2F"/>
<path d="M49.9585 44.8691H44.6192V50.2084H49.9585V44.8691Z" fill="#112C2F"/>
<path d="M44.6191 39.5293H39.2799V44.8686H44.6191V39.5293Z" fill="#112C2F"/>
<path d="M39.2798 34.1914H33.9405V39.5307H39.2798V34.1914Z" fill="#112C2F"/>
<path d="M39.2798 34.1914H33.9405V39.5307H39.2798V34.1914Z" fill="#112C2F"/>
<path d="M33.9404 28.8525H28.6011V34.1918H33.9404V28.8525Z" fill="#112C2F"/>
<path d="M28.6011 23.5117H23.2618V28.851H28.6011V23.5117Z" fill="#112C2F"/>
<path d="M23.2617 18.1729H17.9224V23.5121H23.2617V18.1729Z" fill="#112C2F"/>
<path d="M17.9229 12.833H12.5836V18.1723H17.9229V12.833Z" fill="#112C2F"/>
<path d="M12.5835 7.49414H7.24421V12.8334H12.5835V7.49414Z" fill="#112C2F"/>
<path d="M7.24414 2.1543H1.90485V7.49358H7.24414V2.1543Z" fill="#112C2F"/>
</g>
</svg>
