<svg width="48" height="98" viewBox="0 0 48 98" fill="none" xmlns="http://www.w3.org/2000/svg">
<g clip-path="url(#clip0_98_34916)">
<path d="M6 6H0V-2.38419e-07H6V6Z" fill="#25494C"/>
<path d="M18 25H12V19H18V25Z" fill="#25494C"/>
<path d="M42 25H36V19H42V25Z" fill="#25494C"/>
<path d="M6 36H0V30H6V36Z" fill="#25494C"/>
<path d="M30 6H24V-2.38419e-07H30V6Z" fill="#25494C"/>
<path d="M18 49H12V43H18V49Z" fill="#25494C"/>
<path d="M42 49H36V43H42V49Z" fill="#25494C"/>
<path d="M6 60H0V54H6V60Z" fill="#25494C"/>
<path d="M12 74H6V68H12V74Z" fill="#25494C"/>
<path d="M12 98H6V92H12V98Z" fill="#25494C"/>
<path d="M6 86H0V80H6V86Z" fill="#25494C"/>
<path d="M24 74H18V68H24V74Z" fill="#25494C"/>
<path d="M24 98H18V92H24V98Z" fill="#25494C"/>
<path d="M18 86H12V80H18V86Z" fill="#25494C"/>
<path d="M36 74H30V68H36V74Z" fill="#25494C"/>
<path d="M36 98H30V92H36V98Z" fill="#25494C"/>
<path d="M30 86H24V80H30V86Z" fill="#25494C"/>
<path d="M48 74H42V68H48V74Z" fill="#25494C"/>
<path d="M48 98H42V92H48V98Z" fill="#25494C"/>
<path d="M42 86H36V80H42V86Z" fill="#25494C"/>
<path d="M30 60H24V54H30V60Z" fill="#25494C"/>
</g>
<defs>
<clipPath id="clip0_98_34916">
<rect width="48" height="98" fill="white"/>
</clipPath>
</defs>
</svg>
