<svg width="1440" height="364" viewBox="0 0 1440 364" fill="none" xmlns="http://www.w3.org/2000/svg">
<path d="M1273.07 94.9998H1280.33V102.265H1273.07V94.9998Z" fill="#1A3C3F"/>
<path d="M1302.13 94.9998H1309.4V102.265H1302.13V94.9998Z" fill="#0F2426"/>
<path d="M1265.8 102.265H1273.07V109.533H1265.8V102.265Z" fill="#081516"/>
<path d="M1273.07 102.265H1280.33V109.533H1273.07V102.265Z" fill="#0F2426"/>
<path d="M1294.87 102.265H1302.13V109.533H1294.87V102.265Z" fill="#0F2426"/>
<path d="M1302.13 102.265H1309.4V109.533H1302.13V102.265Z" fill="#081516"/>
<path d="M1273.07 109.532H1280.33V116.797H1273.07V109.532Z" fill="#081516"/>
<path d="M1280.33 109.532H1287.6V116.797H1280.33V109.532Z" fill="#0F2426"/>
<path d="M1294.87 109.532H1302.13V116.797H1294.87V109.532Z" fill="#0F2426"/>
<path d="M1280.33 116.798H1287.6V124.066H1280.33V116.798Z" fill="#081516"/>
<path d="M1287.6 116.798H1294.87V124.066H1287.6V116.798Z" fill="#0F2426"/>
<path d="M1294.87 116.798H1302.13V124.066H1294.87V116.798Z" fill="#081516"/>
<path d="M1251.27 124.065H1258.53V131.333H1251.27V124.065Z" fill="#0F2426"/>
<path d="M1287.6 124.065H1294.87V131.333H1287.6V124.065Z" fill="#081516"/>
<path d="M1331.2 124.065H1338.47V131.333H1331.2V124.065Z" fill="#081516"/>
<path d="M1258.53 131.333H1265.8V138.598H1258.53V131.333Z" fill="#0F2426"/>
<path d="M1287.6 131.333H1294.87V138.598H1287.6V131.333Z" fill="#081516"/>
<path d="M1294.87 131.333H1302.13V138.598H1294.87V131.333Z" fill="#0F2426"/>
<path d="M1323.93 131.333H1331.2V138.598H1323.93V131.333Z" fill="#081516"/>
<path d="M1244 138.597H1251.27V145.865H1244V138.597Z" fill="#0F2426"/>
<path d="M1251.27 138.597H1258.53V145.865H1251.27V138.597Z" fill="#081516"/>
<path d="M1265.8 138.597H1273.07V145.865H1265.8V138.597Z" fill="#0F2426"/>
<path d="M1287.6 138.597H1294.87V145.865H1287.6V138.597Z" fill="#081516"/>
<path d="M1294.87 138.597H1302.13V145.865H1294.87V138.597Z" fill="#081516"/>
<path d="M1309.4 138.597H1316.67V145.865H1309.4V138.597Z" fill="#0F2426"/>
<path d="M1316.67 138.597H1323.93V145.865H1316.67V138.597Z" fill="#081516"/>
<path d="M1258.53 145.866H1265.8V153.131H1258.53V145.866Z" fill="#081516"/>
<path d="M1265.8 145.866H1273.07V153.131H1265.8V145.866Z" fill="#0F2426"/>
<path d="M1294.87 145.866H1302.13V153.131H1294.87V145.866Z" fill="#081516"/>
<path d="M1302.13 145.866H1309.4V153.131H1302.13V145.866Z" fill="#1A3C3F"/>
<path d="M1309.4 145.866H1316.67V153.131H1309.4V145.866Z" fill="#081516"/>
<path d="M1265.8 153.131H1273.07V160.399H1265.8V153.131Z" fill="#081516"/>
<path d="M1294.87 153.131H1302.13V160.399H1294.87V153.131Z" fill="#081516"/>
<path d="M1302.13 153.131H1309.4V160.399H1302.13V153.131Z" fill="#0F2426"/>
<path d="M1331.2 153.131H1338.47V160.399H1331.2V153.131Z" fill="#1A3C3F"/>
<path d="M1265.8 160.399H1273.07V167.664H1265.8V160.399Z" fill="#081516"/>
<path d="M1294.87 160.399H1302.13V167.664H1294.87V160.399Z" fill="#081516"/>
<path d="M1302.13 160.399H1309.4V167.664H1302.13V160.399Z" fill="#1A3C3F"/>
<path d="M1331.2 160.399H1338.47V167.664H1331.2V160.399Z" fill="#1A3C3F"/>
<path d="M1345.73 160.399H1353V167.664H1345.73V160.399Z" fill="#081516"/>
<path d="M1265.8 167.665H1273.07V174.933H1265.8V167.665Z" fill="#081516"/>
<path d="M1287.6 167.665H1294.87V174.933H1287.6V167.665Z" fill="#081516"/>
<path d="M1294.87 167.665H1302.13V174.933H1294.87V167.665Z" fill="#0F2426"/>
<path d="M1302.13 167.665H1309.4V174.933H1302.13V167.665Z" fill="#0F2426"/>
<path d="M1323.93 167.665H1331.2V174.933H1323.93V167.665Z" fill="#1A3C3F"/>
<path d="M1331.2 167.665H1338.47V174.933H1331.2V167.665Z" fill="#081516"/>
<path d="M1338.47 167.665H1345.73V174.933H1338.47V167.665Z" fill="#081516"/>
<path d="M1273.07 174.932H1280.33V182.2H1273.07V174.932Z" fill="#081516"/>
<path d="M1287.6 174.932H1294.87V182.2H1287.6V174.932Z" fill="#081516"/>
<path d="M1294.87 174.932H1302.13V182.2H1294.87V174.932Z" fill="#0F2426"/>
<path d="M1302.13 174.932H1309.4V182.2H1302.13V174.932Z" fill="#0F2426"/>
<path d="M1316.67 174.932H1323.93V182.2H1316.67V174.932Z" fill="#1A3C3F"/>
<path d="M1323.93 174.932H1331.2V182.2H1323.93V174.932Z" fill="#0F2426"/>
<path d="M1280.33 182.201H1287.6V189.466H1280.33V182.201Z" fill="#081516"/>
<path d="M1287.6 182.201H1294.87V189.466H1287.6V182.201Z" fill="#081516"/>
<path d="M1294.87 182.201H1302.13V189.466H1294.87V182.201Z" fill="#0F2426"/>
<path d="M1302.13 182.201H1309.4V189.466H1302.13V182.201Z" fill="#1A3C3F"/>
<path d="M1309.4 182.201H1316.67V189.466H1309.4V182.201Z" fill="#1A3C3F"/>
<path d="M1316.67 182.201H1323.93V189.466H1316.67V182.201Z" fill="#0F2426"/>
<path d="M1323.93 182.201H1331.2V189.466H1323.93V182.201Z" fill="#081516"/>
<path d="M1287.6 189.464H1294.87V196.732H1287.6V189.464Z" fill="#081516"/>
<path d="M1294.87 189.464H1302.13V196.732H1294.87V189.464Z" fill="#0F2426"/>
<path d="M1302.13 189.464H1309.4V196.732H1302.13V189.464Z" fill="#081516"/>
<path d="M1309.4 189.464H1316.67V196.732H1309.4V189.464Z" fill="#081516"/>
<path d="M1316.67 189.464H1323.93V196.732H1316.67V189.464Z" fill="#081516"/>
<path d="M1287.6 196.732H1294.87V203.997H1287.6V196.732Z" fill="#081516"/>
<path d="M1294.87 196.732H1302.13V203.997H1294.87V196.732Z" fill="#0F2426"/>
<path d="M1302.13 196.732H1309.4V203.997H1302.13V196.732Z" fill="#081516"/>
<path d="M1287.6 203.998H1294.87V211.266H1287.6V203.998Z" fill="#081516"/>
<path d="M1294.87 203.998H1302.13V211.266H1294.87V203.998Z" fill="#0F2426"/>
<path d="M1302.13 203.998H1309.4V211.266H1302.13V203.998Z" fill="#0F2426"/>
<path d="M1323.93 203.998H1331.2V211.266H1323.93V203.998Z" fill="#0F2426"/>
<path d="M1287.6 211.266H1294.87V218.534H1287.6V211.266Z" fill="#081516"/>
<path d="M1294.87 211.266H1302.13V218.534H1294.87V211.266Z" fill="#0F2426"/>
<path d="M1302.13 211.266H1309.4V218.534H1302.13V211.266Z" fill="#0F2426"/>
<path d="M1316.67 211.266H1323.93V218.534H1316.67V211.266Z" fill="#081516"/>
<path d="M1323.93 211.266H1331.2V218.534H1323.93V211.266Z" fill="#081516"/>
<path d="M1331.2 211.266H1338.47V218.534H1331.2V211.266Z" fill="#081516"/>
<path d="M1287.6 218.533H1294.87V225.798H1287.6V218.533Z" fill="#081516"/>
<path d="M1294.87 218.533H1302.13V225.798H1294.87V218.533Z" fill="#0F2426"/>
<path d="M1302.13 218.533H1309.4V225.798H1302.13V218.533Z" fill="#1A3C3F"/>
<path d="M1309.4 218.533H1316.67V225.798H1309.4V218.533Z" fill="#0F2426"/>
<path d="M1287.6 225.798H1294.87V233.066H1287.6V225.798Z" fill="#0F2426"/>
<path d="M1294.87 225.798H1302.13V233.066H1294.87V225.798Z" fill="#081516"/>
<path d="M1302.13 225.798H1309.4V233.066H1302.13V225.798Z" fill="#0F2426"/>
<path d="M1294.87 233.066H1302.13V240.331H1294.87V233.066Z" fill="#081516"/>
<path d="M1302.13 233.066H1309.4V240.331H1302.13V233.066Z" fill="#0F2426"/>
<path d="M1309.4 233.066H1316.67V240.331H1309.4V233.066Z" fill="#1A3C3F"/>
<path d="M1294.87 240.331H1302.13V247.599H1294.87V240.331Z" fill="#081516"/>
<path d="M1302.13 240.331H1309.4V247.599H1302.13V240.331Z" fill="#1A3C3F"/>
<path d="M1309.4 240.331H1316.67V247.599H1309.4V240.331Z" fill="#0F2426"/>
<path d="M1294.87 247.599H1302.13V254.864H1294.87V247.599Z" fill="#081516"/>
<path d="M1302.13 247.599H1309.4V254.864H1302.13V247.599Z" fill="#1A3C3F"/>
<path d="M1309.4 247.599H1316.67V254.864H1309.4V247.599Z" fill="#1A3C3F"/>
<path d="M1287.6 254.863H1294.87V262.131H1287.6V254.863Z" fill="#081516"/>
<path d="M1294.87 254.863H1302.13V262.131H1294.87V254.863Z" fill="#081516"/>
<path d="M1302.13 254.863H1309.4V262.131H1302.13V254.863Z" fill="#0F2426"/>
<path d="M1309.4 254.863H1316.67V262.131H1309.4V254.863Z" fill="#1A3C3F"/>
<path d="M1316.67 254.863H1323.93V262.131H1316.67V254.863Z" fill="#081516"/>
<path d="M1273.07 262.131H1280.33V269.399H1273.07V262.131Z" fill="#0F2426"/>
<path d="M1280.33 262.131H1287.6V269.399H1280.33V262.131Z" fill="#081516"/>
<path d="M1287.6 262.131H1294.87V269.399H1287.6V262.131Z" fill="#081516"/>
<path d="M1294.87 262.131H1302.13V269.399H1294.87V262.131Z" fill="#0F2426"/>
<path d="M1302.13 262.131H1309.4V269.399H1302.13V262.131Z" fill="#0F2426"/>
<path d="M1309.4 262.131H1316.67V269.399H1309.4V262.131Z" fill="#0F2426"/>
<path d="M1316.67 262.131H1323.93V269.399H1316.67V262.131Z" fill="#0F2426"/>
<path d="M1323.93 262.131H1331.2V269.399H1323.93V262.131Z" fill="#081516"/>
<path d="M91.0664 94.9998H98.3331V102.265H91.0664V94.9998Z" fill="#1A3C3F"/>
<path d="M120.133 94.9998H127.4V102.265H120.133V94.9998Z" fill="#0F2426"/>
<path d="M83.7998 102.265H91.0665V109.533H83.7998V102.265Z" fill="#081516"/>
<path d="M91.0664 102.265H98.3331V109.533H91.0664V102.265Z" fill="#0F2426"/>
<path d="M112.867 102.265H120.133V109.533H112.867V102.265Z" fill="#0F2426"/>
<path d="M120.133 102.265H127.4V109.533H120.133V102.265Z" fill="#081516"/>
<path d="M91.0664 109.532H98.3331V116.797H91.0664V109.532Z" fill="#081516"/>
<path d="M98.333 109.532H105.6V116.797H98.333V109.532Z" fill="#0F2426"/>
<path d="M112.867 109.532H120.133V116.797H112.867V109.532Z" fill="#0F2426"/>
<path d="M98.333 116.798H105.6V124.066H98.333V116.798Z" fill="#081516"/>
<path d="M105.6 116.798H112.867V124.066H105.6V116.798Z" fill="#0F2426"/>
<path d="M112.867 116.798H120.133V124.066H112.867V116.798Z" fill="#081516"/>
<path d="M69.2666 124.065H76.533V131.333H69.2666V124.065Z" fill="#0F2426"/>
<path d="M105.6 124.065H112.867V131.333H105.6V124.065Z" fill="#081516"/>
<path d="M149.2 124.065H156.466V131.333H149.2V124.065Z" fill="#081516"/>
<path d="M76.5332 131.333H83.7999V138.598H76.5332V131.333Z" fill="#0F2426"/>
<path d="M105.6 131.333H112.867V138.598H105.6V131.333Z" fill="#081516"/>
<path d="M112.867 131.333H120.133V138.598H112.867V131.333Z" fill="#0F2426"/>
<path d="M141.933 131.333H149.2V138.598H141.933V131.333Z" fill="#081516"/>
<path d="M62 138.597H69.2667V145.865H62V138.597Z" fill="#0F2426"/>
<path d="M69.2666 138.597H76.533V145.865H69.2666V138.597Z" fill="#081516"/>
<path d="M83.7998 138.597H91.0665V145.865H83.7998V138.597Z" fill="#0F2426"/>
<path d="M105.6 138.597H112.867V145.865H105.6V138.597Z" fill="#081516"/>
<path d="M112.867 138.597H120.133V145.865H112.867V138.597Z" fill="#081516"/>
<path d="M127.4 138.597H134.666V145.865H127.4V138.597Z" fill="#0F2426"/>
<path d="M134.667 138.597H141.933V145.865H134.667V138.597Z" fill="#081516"/>
<path d="M76.5332 145.866H83.7999V153.131H76.5332V145.866Z" fill="#081516"/>
<path d="M83.7998 145.866H91.0665V153.131H83.7998V145.866Z" fill="#0F2426"/>
<path d="M112.867 145.866H120.133V153.131H112.867V145.866Z" fill="#081516"/>
<path d="M120.133 145.866H127.4V153.131H120.133V145.866Z" fill="#1A3C3F"/>
<path d="M127.4 145.866H134.666V153.131H127.4V145.866Z" fill="#081516"/>
<path d="M83.7998 153.131H91.0665V160.399H83.7998V153.131Z" fill="#081516"/>
<path d="M112.867 153.131H120.133V160.399H112.867V153.131Z" fill="#081516"/>
<path d="M120.133 153.131H127.4V160.399H120.133V153.131Z" fill="#0F2426"/>
<path d="M149.2 153.131H156.466V160.399H149.2V153.131Z" fill="#1A3C3F"/>
<path d="M83.7998 160.399H91.0665V167.664H83.7998V160.399Z" fill="#081516"/>
<path d="M112.867 160.399H120.133V167.664H112.867V160.399Z" fill="#081516"/>
<path d="M120.133 160.399H127.4V167.664H120.133V160.399Z" fill="#1A3C3F"/>
<path d="M149.2 160.399H156.466V167.664H149.2V160.399Z" fill="#1A3C3F"/>
<path d="M163.733 160.399H171V167.664H163.733V160.399Z" fill="#081516"/>
<path d="M83.7998 167.665H91.0665V174.933H83.7998V167.665Z" fill="#081516"/>
<path d="M105.6 167.665H112.867V174.933H105.6V167.665Z" fill="#081516"/>
<path d="M112.867 167.665H120.133V174.933H112.867V167.665Z" fill="#0F2426"/>
<path d="M120.133 167.665H127.4V174.933H120.133V167.665Z" fill="#0F2426"/>
<path d="M141.933 167.665H149.2V174.933H141.933V167.665Z" fill="#1A3C3F"/>
<path d="M149.2 167.665H156.466V174.933H149.2V167.665Z" fill="#081516"/>
<path d="M156.467 167.665H163.733V174.933H156.467V167.665Z" fill="#081516"/>
<path d="M91.0664 174.932H98.3331V182.2H91.0664V174.932Z" fill="#081516"/>
<path d="M105.6 174.932H112.867V182.2H105.6V174.932Z" fill="#081516"/>
<path d="M112.867 174.932H120.133V182.2H112.867V174.932Z" fill="#0F2426"/>
<path d="M120.133 174.932H127.4V182.2H120.133V174.932Z" fill="#0F2426"/>
<path d="M134.667 174.932H141.933V182.2H134.667V174.932Z" fill="#1A3C3F"/>
<path d="M141.933 174.932H149.2V182.2H141.933V174.932Z" fill="#0F2426"/>
<path d="M98.333 182.201H105.6V189.466H98.333V182.201Z" fill="#081516"/>
<path d="M105.6 182.201H112.867V189.466H105.6V182.201Z" fill="#081516"/>
<path d="M112.867 182.201H120.133V189.466H112.867V182.201Z" fill="#0F2426"/>
<path d="M120.133 182.201H127.4V189.466H120.133V182.201Z" fill="#1A3C3F"/>
<path d="M127.4 182.201H134.666V189.466H127.4V182.201Z" fill="#1A3C3F"/>
<path d="M134.667 182.201H141.933V189.466H134.667V182.201Z" fill="#0F2426"/>
<path d="M141.933 182.201H149.2V189.466H141.933V182.201Z" fill="#081516"/>
<path d="M105.6 189.464H112.867V196.732H105.6V189.464Z" fill="#081516"/>
<path d="M112.867 189.464H120.133V196.732H112.867V189.464Z" fill="#0F2426"/>
<path d="M120.133 189.464H127.4V196.732H120.133V189.464Z" fill="#081516"/>
<path d="M127.4 189.464H134.666V196.732H127.4V189.464Z" fill="#081516"/>
<path d="M134.667 189.464H141.933V196.732H134.667V189.464Z" fill="#081516"/>
<path d="M105.6 196.732H112.867V203.997H105.6V196.732Z" fill="#081516"/>
<path d="M112.867 196.732H120.133V203.997H112.867V196.732Z" fill="#0F2426"/>
<path d="M120.133 196.732H127.4V203.997H120.133V196.732Z" fill="#081516"/>
<path d="M105.6 203.998H112.867V211.266H105.6V203.998Z" fill="#081516"/>
<path d="M112.867 203.998H120.133V211.266H112.867V203.998Z" fill="#0F2426"/>
<path d="M120.133 203.998H127.4V211.266H120.133V203.998Z" fill="#0F2426"/>
<path d="M141.933 203.998H149.2V211.266H141.933V203.998Z" fill="#0F2426"/>
<path d="M105.6 211.266H112.867V218.534H105.6V211.266Z" fill="#081516"/>
<path d="M112.867 211.266H120.133V218.534H112.867V211.266Z" fill="#0F2426"/>
<path d="M120.133 211.266H127.4V218.534H120.133V211.266Z" fill="#0F2426"/>
<path d="M134.667 211.266H141.933V218.534H134.667V211.266Z" fill="#081516"/>
<path d="M141.933 211.266H149.2V218.534H141.933V211.266Z" fill="#081516"/>
<path d="M149.2 211.266H156.466V218.534H149.2V211.266Z" fill="#081516"/>
<path d="M105.6 218.533H112.867V225.798H105.6V218.533Z" fill="#081516"/>
<path d="M112.867 218.533H120.133V225.798H112.867V218.533Z" fill="#0F2426"/>
<path d="M120.133 218.533H127.4V225.798H120.133V218.533Z" fill="#1A3C3F"/>
<path d="M127.4 218.533H134.666V225.798H127.4V218.533Z" fill="#0F2426"/>
<path d="M105.6 225.798H112.867V233.066H105.6V225.798Z" fill="#0F2426"/>
<path d="M112.867 225.798H120.133V233.066H112.867V225.798Z" fill="#081516"/>
<path d="M120.133 225.798H127.4V233.066H120.133V225.798Z" fill="#0F2426"/>
<path d="M112.867 233.066H120.133V240.331H112.867V233.066Z" fill="#081516"/>
<path d="M120.133 233.066H127.4V240.331H120.133V233.066Z" fill="#0F2426"/>
<path d="M127.4 233.066H134.666V240.331H127.4V233.066Z" fill="#1A3C3F"/>
<path d="M112.867 240.331H120.133V247.599H112.867V240.331Z" fill="#081516"/>
<path d="M120.133 240.331H127.4V247.599H120.133V240.331Z" fill="#1A3C3F"/>
<path d="M127.4 240.331H134.666V247.599H127.4V240.331Z" fill="#0F2426"/>
<path d="M112.867 247.599H120.133V254.864H112.867V247.599Z" fill="#081516"/>
<path d="M120.133 247.599H127.4V254.864H120.133V247.599Z" fill="#1A3C3F"/>
<path d="M127.4 247.599H134.666V254.864H127.4V247.599Z" fill="#1A3C3F"/>
<path d="M105.6 254.863H112.867V262.131H105.6V254.863Z" fill="#081516"/>
<path d="M112.867 254.863H120.133V262.131H112.867V254.863Z" fill="#081516"/>
<path d="M120.133 254.863H127.4V262.131H120.133V254.863Z" fill="#0F2426"/>
<path d="M127.4 254.863H134.666V262.131H127.4V254.863Z" fill="#1A3C3F"/>
<path d="M134.667 254.863H141.933V262.131H134.667V254.863Z" fill="#081516"/>
<path d="M91.0664 262.131H98.3331V269.399H91.0664V262.131Z" fill="#0F2426"/>
<path d="M98.333 262.131H105.6V269.399H98.333V262.131Z" fill="#081516"/>
<path d="M105.6 262.131H112.867V269.399H105.6V262.131Z" fill="#081516"/>
<path d="M112.867 262.131H120.133V269.399H112.867V262.131Z" fill="#0F2426"/>
<path d="M120.133 262.131H127.4V269.399H120.133V262.131Z" fill="#0F2426"/>
<path d="M127.4 262.131H134.666V269.399H127.4V262.131Z" fill="#0F2426"/>
<path d="M134.667 262.131H141.933V269.399H134.667V262.131Z" fill="#0F2426"/>
<path d="M141.933 262.131H149.2V269.399H141.933V262.131Z" fill="#081516"/>
</svg>
