<svg width="500" height="500" viewBox="0 0 500 500" fill="none" xmlns="http://www.w3.org/2000/svg">
<path d="M84.8688 167.226C96.1212 172.879 107.371 179.719 116.81 189.181C121.46 193.922 125.547 199.184 128.987 204.863C132.335 210.451 135.178 216.326 137.484 222.419C142.264 235.225 144.858 248.472 146.871 261.454C147.398 264.675 147.874 267.894 148.321 271.102L149.61 280.71L137.87 282.172C135.988 267.06 134.513 251.531 135.805 235.778C137.035 220.094 141.157 204.112 149.519 190.114C151.618 186.595 153.98 183.239 156.585 180.076C159.196 176.854 162.098 173.879 165.255 171.188C166.023 170.48 166.859 169.866 167.676 169.226C168.505 168.602 169.302 167.926 170.16 167.35C171.872 166.189 173.57 164.992 175.362 163.983C178.878 161.891 182.543 160.06 186.326 158.504C190.042 156.968 193.84 155.639 197.703 154.523C201.528 153.454 205.369 152.467 209.2 151.693C216.869 150.065 224.489 148.966 232.003 147.887L232.744 162.127L226.048 161.983C218.773 161.846 211.431 161.457 204.033 160.859C196.461 160.315 188.94 159.203 181.533 157.533C173.725 155.788 166.243 152.816 159.367 148.727C155.814 146.533 152.53 143.932 149.58 140.976C146.643 138.004 144.086 134.679 141.968 131.077C137.785 124.039 135.219 116.676 133.027 109.593C130.812 102.466 128.968 95.2293 127.502 87.912C125.998 80.6071 124.925 73.2205 124.286 65.79C123.979 62.0763 123.739 58.3583 123.623 54.6364L123.538 51.8456C123.516 50.9156 123.539 49.9836 123.461 49.055C123.354 47.1961 123.331 45.3343 123.263 43.4726L135.886 44.0702C134.825 57.6537 133.69 71.4694 131.072 85.3526C130.715 87.0848 130.389 88.8246 130.004 90.5526L128.709 95.7289L127.23 100.884L125.548 106.006C123.164 112.885 120.121 119.518 116.461 125.812C109.384 137.71 99.6784 147.83 88.0865 155.398C83.6051 158.411 78.7021 160.744 73.5372 162.322C71.6512 162.862 69.7251 163.251 67.7772 163.485C66.9092 163.579 66.0911 163.641 65.3231 163.67L64.7558 163.686L64.2968 163.629C63.9746 163.585 63.6637 163.542 63.3642 163.501C59.6503 162.959 57.5883 162.312 60.4496 159.499C60.8636 159.109 61.3013 158.745 61.7602 158.409C62.0002 158.222 62.3393 158.011 62.5556 157.834C62.7567 157.666 62.9667 157.49 63.1856 157.307C64.0606 156.582 65.1178 155.873 66.2848 155.033C67.442 154.174 68.7872 153.357 70.1998 152.347C70.9166 151.869 71.6655 151.369 72.4464 150.848C73.2126 150.305 74.0145 149.754 74.8521 149.195C79.1869 146.222 83.3224 142.968 87.2321 139.455C91.2252 135.924 94.94 132.09 98.3435 127.987C102.983 122.329 106.882 116.103 109.947 109.46C113.046 102.675 115.512 95.6184 117.312 88.38C121.177 73.7913 122.925 58.4464 124.565 42.98L124.566 42.9712C124.702 41.6898 125.324 40.509 126.302 39.6708C127.281 38.8325 128.543 38.4001 129.83 38.4622C131.117 38.5242 132.332 39.0761 133.225 40.0046C134.119 40.9332 134.624 42.1682 134.636 43.4568C134.659 45.9659 134.576 48.4798 134.752 50.9868C134.911 53.4929 135.099 55.9959 135.353 58.4924C135.838 63.4874 136.559 68.4524 137.382 73.3914C139.01 83.2632 141.395 92.995 144.518 102.5C146.515 109.001 149.11 115.302 152.268 121.325C153.753 124.047 155.505 126.615 157.496 128.992C159.439 131.225 161.592 133.267 163.924 135.091C166.113 136.729 168.438 138.179 170.872 139.424C173.419 140.677 176.047 141.757 178.74 142.656C184.374 144.454 190.164 145.721 196.035 146.441C208.059 148.006 220.556 148.234 233.124 148.698L233.198 148.701C234.773 148.759 236.268 149.407 237.387 150.516C238.507 151.625 239.168 153.114 239.241 154.688C239.313 156.262 238.792 157.806 237.779 159.013C236.767 160.22 235.338 161.003 233.775 161.206C224.233 162.444 214.843 163.74 205.82 165.842C196.833 167.99 188.131 170.805 180.447 175.224C177.169 177.096 174.074 179.272 171.202 181.722C168.348 184.227 165.734 186.993 163.392 189.983C158.719 196.167 155.045 203.046 152.505 210.369C149.905 217.799 148.227 225.521 147.511 233.36C146.765 241.329 146.6 249.341 147.015 257.334C147.348 265.115 148.14 272.941 149.058 280.796L149.064 280.848C149.228 282.257 148.827 283.673 147.949 284.787C147.071 285.901 145.787 286.62 144.378 286.789C142.97 286.957 141.553 286.56 140.437 285.685C139.32 284.81 138.597 283.528 138.425 282.12C136.883 269.505 135.255 256.997 132.339 244.939C130.969 238.938 129.218 233.031 127.097 227.252C124.98 221.576 122.334 216.112 119.193 210.931C118.368 209.679 117.603 208.38 116.736 207.16L114.056 203.559C112.171 201.242 110.166 199.025 108.05 196.917C103.671 192.72 98.8716 188.985 93.7281 185.769C91.1381 184.125 88.4681 182.574 85.7408 181.097C84.3775 180.358 83.0008 179.636 81.6108 178.931L79.5175 177.884L78.4711 177.371L77.477 176.926C76.1801 176.302 74.757 175.798 73.3744 175.251C71.9359 174.783 70.5297 174.25 69.0531 173.846C66.1464 172.942 63.1449 172.256 60.1454 171.606C54.3277 170.393 48.4251 169.631 42.4901 169.327C36.7377 169.043 31.0614 169.382 26.3437 171.015L24.9877 165.621L24.9833 165.264H24.9887H25.0219H25.0663H25.1552L25.3329 165.266C25.4482 165.268 25.5663 165.271 25.7323 165.262L26.6503 165.232L28.5175 165.155C29.7699 165.099 31.0152 165.043 32.2533 164.988C34.7393 164.889 37.1948 164.791 39.62 164.695C44.4784 164.519 49.2216 164.414 53.8559 164.316C55.4327 164.257 57.0117 164.318 58.579 164.501C59.1869 164.549 59.5502 164.732 60.1108 164.731C60.4758 164.72 60.8351 164.822 61.1408 165.021L62.0608 163.948C61.9308 164.438 61.7508 164.654 61.8366 164.698C61.8952 164.742 62.2146 164.603 62.5066 164.134C62.5419 164.078 62.5643 164.015 62.5723 163.949C62.5802 163.883 62.5734 163.816 62.5524 163.752C62.5314 163.689 62.4967 163.632 62.4508 163.584C62.4049 163.535 62.349 163.498 62.2869 163.474C62.2249 163.45 62.1583 163.44 62.092 163.445C62.0257 163.45 61.9613 163.469 61.9033 163.502C61.8454 163.534 61.7953 163.579 61.7568 163.634C61.7183 163.688 61.6922 163.75 61.6805 163.815L61.3939 165.434C61.3406 165.733 60.9363 166.191 60.1858 166.699C59.6648 167.124 59.0974 167.488 58.4944 167.785C56.636 168.694 54.6759 169.378 52.6556 169.823C48.2791 170.83 43.8714 171.72 39.3982 172.566C37.163 172.987 34.9122 173.393 32.6458 173.783L29.2158 174.351L27.4531 174.621L26.5356 174.751C26.1909 174.796 25.6756 174.842 25.252 174.879C23.7345 175.01 22.2191 174.605 20.9684 173.736C19.7177 172.867 18.8104 171.588 18.4038 170.12C17.9972 168.652 18.1169 167.088 18.7421 165.699C19.3673 164.31 20.4587 163.184 21.8271 162.515L22.2646 162.305C25.7895 160.664 29.5336 159.544 33.3801 158.978C35.1618 158.762 36.9792 158.484 38.7263 158.42C39.6063 158.372 40.4953 158.3 41.3693 158.277L43.9782 158.256C50.9011 158.325 57.7969 159.131 64.549 160.66C67.9607 161.396 71.3334 162.303 74.6545 163.376L77.1735 164.217L79.7035 165.18C80.5404 165.479 81.4018 165.885 82.2523 166.254L83.5292 166.82L84.6669 167.369C84.7325 167.319 84.794 167.273 84.8688 167.226Z" fill="#F5E01D"/>
<path d="M383.984 196.417C389.851 203.451 394.581 211.359 398.005 219.854C398.425 220.918 398.877 221.967 399.263 223.042L400.293 226.319C400.62 227.415 401.005 228.492 401.279 229.604L402.034 232.958C402.264 234.08 402.576 235.182 402.732 236.319L403.198 239.728L403.427 241.431C403.506 241.993 403.582 242.561 403.621 243.186C403.714 244.412 403.76 245.678 403.729 246.995C403.697 249.364 403.312 251.715 402.586 253.97C402.135 255.284 401.531 256.541 400.788 257.714C399.96 258.966 398.956 260.091 397.808 261.057L397.726 261.125C396.776 261.923 395.606 262.415 394.371 262.536C393.135 262.657 391.892 262.402 390.805 261.804C389.717 261.205 388.836 260.292 388.277 259.184C387.718 258.076 387.507 256.825 387.672 255.595C388.441 249.896 389.534 244.245 390.944 238.67C393.239 229.35 396.796 220.386 401.514 212.026C406.35 203.48 412.669 195.864 420.176 189.533C427.861 183.183 436.738 178.433 446.285 175.56C456.091 172.644 466.46 172.157 476.497 174.14C477.971 174.444 479.315 175.199 480.341 176.3C481.368 177.401 482.027 178.793 482.228 180.285C482.429 181.777 482.162 183.294 481.463 184.628C480.764 185.961 479.668 187.044 478.327 187.727L478.194 187.794C474.928 189.408 471.427 190.498 467.822 191.024C464.507 191.488 461.154 191.622 457.812 191.422C454.61 191.264 451.559 190.884 448.626 190.463C445.702 190.033 442.911 189.615 439.881 189.062C435.524 188.329 431.26 187.123 427.164 185.465C424.922 184.524 422.778 183.364 420.764 182.003C418.707 180.599 416.809 178.977 415.101 177.164C411.931 173.69 409.341 169.729 407.43 165.432C405.66 161.463 404.271 157.334 403.281 153.102C399.285 136.703 399.623 119.546 404.261 103.316L404.267 103.292C404.673 101.878 405.484 100.613 406.6 99.6535C407.716 98.6941 409.088 98.0819 410.547 97.8924C412.006 97.7029 413.489 97.9444 414.813 98.5872C416.137 99.2299 417.244 100.246 417.997 101.51C420.36 105.615 421.639 110.254 421.714 114.991C421.791 119.143 421.277 123.284 420.188 127.292C419.706 129.225 419.082 131.013 418.488 132.82C417.824 134.602 417.176 136.394 416.388 138.122C414.884 141.605 413.12 144.971 411.11 148.19C403.126 161.19 391.551 171.604 377.782 178.175C369.023 182.281 359.511 184.537 349.84 184.802C346.046 184.934 342.257 184.413 338.639 183.264C337.905 183.018 337.219 182.764 336.579 182.497C335.941 182.204 335.348 181.904 334.801 181.598C333.8 181.063 332.868 180.406 332.028 179.643C329.816 177.651 330.236 176.047 332.433 174.998C334.638 173.972 338.622 173.43 344.034 172.886L346.628 172.606L349.252 172.256C351.008 171.988 352.787 171.765 354.559 171.433C358.096 170.807 361.594 169.971 365.032 168.929C371.666 166.866 377.895 163.673 383.443 159.491C394.656 151.062 402.8 139.194 406.63 125.7C407.545 122.625 408.009 119.435 408.008 116.227C408.049 113.579 407.338 110.975 405.958 108.715L417.753 107.164C416.552 111.938 415.801 116.815 415.51 121.729C414.949 130.802 416.185 140.132 417.748 148.705C418.83 154.814 420.726 160.598 423.807 165.044C425.257 167.182 427.096 169.029 429.227 170.491C431.551 171.968 434.082 173.09 436.737 173.821C439.765 174.657 442.841 175.311 445.947 175.778C449.257 176.313 452.552 176.85 455.652 177.167C461.889 177.838 467.633 177.583 472.025 175.431L473.542 187.639L471.365 187.225L470.278 187.011L469.174 186.881L466.965 186.613L464.734 186.501C459.662 186.308 454.591 186.902 449.7 188.262C444.722 189.659 439.948 191.705 435.502 194.346C431.028 196.991 426.899 200.179 423.207 203.839C419.48 207.553 416.17 211.664 413.335 216.097C405.551 228.123 400.959 242.365 399.053 256.92L390.44 252.28C390.954 251.847 391.343 251.285 391.565 250.651C391.924 249.665 392.128 248.629 392.171 247.58C392.239 246.277 392.205 244.97 392.068 243.672L391.449 239.331C391.237 237.88 390.944 236.443 390.57 235.026L390.078 232.88C389.928 232.16 389.646 231.475 389.438 230.77C388.971 229.375 388.574 227.954 388.058 226.573L386.367 222.479C383.916 217.068 380.87 211.948 377.284 207.214C373.612 202.511 369.457 198.206 364.886 194.372C359.114 189.652 352.832 185.594 346.156 182.273C345.755 182.063 345.36 181.837 344.956 181.638L343.725 181.096L341.278 179.989C339.672 179.173 337.998 178.631 336.358 177.971L333.9 176.99C333.096 176.701 332.298 176.44 331.496 176.237C329.911 175.743 328.215 175.736 326.626 176.216C326.237 176.364 325.884 176.547 325.605 176.673C325.599 176.676 325.594 176.68 325.589 176.684C325.585 176.689 325.581 176.694 325.579 176.7L325.547 176.79C325.442 177.118 325.464 177.472 325.61 177.784C325.742 178.069 325.93 178.325 326.164 178.535C326.587 178.913 327.116 179.151 327.679 179.217C327.945 179.253 328.216 179.232 328.473 179.156C328.703 179.111 328.93 179.05 329.152 178.973C329.525 178.832 329.797 178.743 329.951 178.842C330.1 178.935 330.145 179.228 329.924 179.729C329.763 180.035 329.549 180.309 329.291 180.54C328.982 180.91 328.579 181.19 328.124 181.352C327.034 181.793 325.823 181.832 324.707 181.463C323.882 181.189 323.141 180.707 322.557 180.063C322.138 179.595 321.807 179.056 321.581 178.47C321.322 177.775 321.204 177.036 321.235 176.295C321.257 175.733 321.44 175.189 321.762 174.729L322.571 173.569C322.995 172.959 323.492 172.404 324.051 171.915C324.363 171.642 324.694 171.393 325.042 171.168C325.412 170.96 325.797 170.777 326.192 170.622C328.063 169.911 330.052 169.567 332.052 169.608C333.615 169.614 335.175 169.751 336.716 170.017L340.95 170.691L342.016 170.874L343.06 171.138L345.155 171.678C350.804 173.147 356.259 175.278 361.406 178.029C369.909 182.789 377.482 189.045 383.762 196.495C383.834 196.469 383.9 196.446 383.984 196.417Z" fill="#F747FB"/>
<path d="M252.124 347.553L256.585 350.05L260.877 352.834L261.945 353.536L262.97 354.304L265.017 355.843C265.694 356.361 266.385 356.862 267.05 357.395L268.988 359.074C271.581 361.301 274.047 363.671 276.374 366.175L279.719 370.056C280.814 371.364 281.78 372.771 282.811 374.125C286.764 379.64 290.115 385.561 292.809 391.789C295.414 398.009 297.389 404.474 298.703 411.089C299.002 412.847 299.367 414.595 299.594 416.364L300.183 421.685L300.443 427.035C300.535 428.818 300.418 430.608 300.412 432.392C300.18 439.543 299.161 446.646 297.375 453.574L295.978 458.449C295.577 459.85 294.682 461.058 293.46 461.852C292.238 462.645 290.771 462.971 289.328 462.768C287.885 462.566 286.564 461.849 285.608 460.749C284.651 459.65 284.124 458.242 284.124 456.785L284.126 456.503C284.139 440.772 284.106 424.55 287.129 408.256C288.615 400.009 291.046 391.96 294.374 384.269C297.774 376.365 302.435 369.066 308.175 362.656C314.063 356.308 320.98 351 328.635 346.954C336.064 343.076 343.879 339.987 351.952 337.738C355.921 336.605 359.9 335.637 363.894 334.78C367.897 333.933 371.998 333.188 376.233 332.725C380.563 332.213 384.929 332.084 389.281 332.338C393.846 332.608 398.358 333.461 402.706 334.878C404.139 335.345 405.393 336.243 406.296 337.449C407.2 338.656 407.709 340.111 407.754 341.618C407.8 343.124 407.379 344.608 406.55 345.866C405.721 347.125 404.523 348.097 403.121 348.649L402.964 348.71C396.117 351.258 388.877 352.59 381.572 352.646C373.82 352.693 366.079 352.077 358.432 350.806C350.85 349.753 343.344 348.216 335.959 346.202C332.143 345.145 328.395 343.856 324.736 342.342C320.967 340.813 317.33 338.976 313.863 336.85C310.306 334.679 306.968 332.169 303.895 329.354C300.838 326.523 298.071 323.395 295.634 320.016C291.002 313.484 287.24 306.377 284.445 298.872C278.951 284.456 275.558 269.324 274.368 253.942C274.229 252.024 274.109 250.104 274.043 248.181C274 247.22 273.97 246.259 273.957 245.297C273.942 244.327 273.907 243.429 273.927 242.25C273.927 239.658 274.31 237.081 275.064 234.603C275.581 232.964 276.353 231.418 277.352 230.021C278.545 228.368 280.087 226.998 281.868 226.009L281.944 225.967C282.816 225.492 283.773 225.193 284.76 225.087C285.748 224.982 286.747 225.072 287.699 225.352C288.652 225.632 289.54 226.097 290.313 226.721C291.086 227.345 291.729 228.114 292.204 228.986C292.714 229.931 293.022 230.972 293.106 232.042C295.337 262.689 287.427 293.219 270.594 318.927C266.675 324.9 262.029 330.364 256.764 335.192C254.068 337.629 251.18 339.845 248.127 341.817C245.062 343.8 241.82 345.493 238.441 346.876C233.084 349.15 227.281 350.186 221.467 349.905C217.74 349.767 214.101 348.734 210.856 346.895C207.366 344.672 208.058 343.138 211.097 342.423C212.643 341.977 214.802 341.701 217.514 341.183C220.792 340.572 224.026 339.748 227.197 338.718C232.065 337.072 236.666 334.727 240.857 331.754C245.218 328.632 249.201 325.013 252.727 320.972C257.818 315.063 262.188 308.571 265.746 301.63C269.434 294.663 272.429 287.35 274.689 279.798C279.241 264.691 280.87 248.854 279.489 233.136L288.482 237.964C288.484 237.97 288.497 237.988 288.484 237.967L288.45 237.918C288.456 237.928 288.463 237.938 288.47 237.947C288.488 237.97 288.506 237.987 288.496 237.975V237.993C288.445 238.067 288.402 238.145 288.368 238.228C288.134 238.781 287.982 239.366 287.919 239.963C287.799 240.899 287.752 241.843 287.777 242.787L287.91 246.361C288.158 251.221 288.673 256.062 289.377 260.869C290.824 270.468 293.244 279.895 296.6 289.004C298.918 295.474 301.941 301.668 305.616 307.475C307.371 310.205 309.338 312.792 311.499 315.213C312.539 316.378 313.637 317.49 314.789 318.545C315.371 319.06 315.913 319.612 316.509 320.108L318.298 321.59C323.66 325.699 329.668 328.885 336.077 331.018C342.857 333.311 349.817 335.03 356.885 336.159C363.966 337.476 371.131 338.298 378.327 338.619C385.011 338.943 391.694 337.974 398.01 335.765L398.238 347.999C391.984 345.872 384.921 345.524 377.667 346.254C374.038 346.597 370.354 347.198 366.632 347.914C362.905 348.642 359.202 349.461 355.563 350.403C347.766 352.324 340.243 355.222 333.172 359.03C326.3 362.717 320.204 367.695 315.219 373.692C310.278 379.85 306.376 386.772 303.664 394.187C300.869 401.779 298.917 409.655 297.844 417.673C296.041 430.302 295.849 443.347 295.682 456.567L285.008 454.815C292.118 433.857 289.638 409.699 278.997 390.051C278.302 388.841 277.684 387.58 276.927 386.407L274.652 382.889C273.878 381.726 272.992 380.647 272.169 379.519C271.742 378.968 271.349 378.387 270.896 377.857L269.523 376.281C267.7 374.168 265.773 372.148 263.748 370.228C261.623 368.415 259.563 366.514 257.261 364.907C256.157 364.042 255.01 363.234 253.824 362.485C252.637 361.737 251.478 360.941 250.269 360.226L246.577 358.185C245.356 357.486 244.042 356.964 242.78 356.341C237.661 353.96 232.308 352.117 226.808 350.842C213.702 347.765 200.092 347.501 186.876 350.066L186.738 344.821C194.652 347.228 202.959 348.07 211.195 347.302C215.87 346.862 218.243 346.736 218.223 347.742C218.192 348.186 217.574 348.956 216.243 349.833C215.436 350.364 214.591 350.836 213.714 351.245C213.203 351.495 212.644 351.747 212.034 351.981C211.73 352.098 211.416 352.234 211.086 352.34C210.752 352.437 210.408 352.532 210.052 352.626C201.792 354.796 193.163 355.169 184.746 353.721C183.353 353.477 182.082 352.773 181.135 351.723C180.188 350.672 179.619 349.335 179.52 347.925C179.421 346.514 179.797 345.11 180.588 343.938C181.379 342.765 182.54 341.891 183.885 341.455L184.419 341.284C192.78 338.618 201.505 337.266 210.281 337.276C217.488 337.255 224.666 338.173 231.636 340.006C238.653 341.822 245.452 344.398 251.912 347.686C251.98 347.639 252.045 347.596 252.124 347.553Z" fill="#8CE3F7"/>
</svg>
