<svg width="64" height="24" viewBox="0 0 64 24" fill="none" xmlns="http://www.w3.org/2000/svg">
<g clip-path="url(#clip0_279_1365)">
<mask id="mask0_279_1365" style="mask-type:luminance" maskUnits="userSpaceOnUse" x="0" y="0" width="64" height="24">
<path d="M64 0H0V24H64V0Z" fill="white"/>
</mask>
<g mask="url(#mask0_279_1365)">
<path d="M33.042 7.94926L36.0868 7.75053C36.1563 8.25321 36.2837 8.62728 36.492 8.89617C36.8278 9.31702 37.2909 9.52747 37.9045 9.52747C38.356 9.52747 38.7149 9.42225 38.958 9.20013C39.1896 9.02479 39.3285 8.74422 39.3285 8.45194C39.3285 8.17138 39.2012 7.90253 38.9812 7.72714C38.7496 7.51674 38.2055 7.30629 37.3488 7.11928C35.9479 6.80361 34.9407 6.38276 34.3502 5.84502C33.7598 5.34234 33.424 4.60587 33.4472 3.82263C33.4472 3.28488 33.6093 2.74713 33.9103 2.3029C34.2576 1.80022 34.7323 1.40275 35.2996 1.18064C35.9132 0.911766 36.7699 0.771484 37.8466 0.771484C39.1664 0.771484 40.1736 1.01697 40.8683 1.51965C41.563 2.01065 41.9798 2.80558 42.1071 3.89277L39.0969 4.06812C39.0159 3.60051 38.8538 3.2615 38.5876 3.03938C38.3213 2.81727 37.974 2.71206 37.5224 2.71206C37.152 2.71206 36.8741 2.79389 36.6888 2.94586C36.5152 3.08614 36.3994 3.29657 36.411 3.53037C36.411 3.70572 36.5036 3.86939 36.6425 3.9746C36.793 4.11488 37.152 4.24347 37.7192 4.36038C39.1201 4.66432 40.1158 4.96827 40.7294 5.28389C41.343 5.59952 41.7829 5.9853 42.0492 6.44121C42.3271 6.90883 42.466 7.44657 42.4544 7.99603C42.4544 8.65067 42.2692 9.30535 41.8987 9.85476C41.5167 10.4276 40.9841 10.8718 40.3589 11.1407C39.699 11.433 38.8654 11.5849 37.8697 11.5849C36.11 11.5849 34.8944 11.2459 34.2113 10.5562C33.5282 9.86648 33.123 9.0014 33.042 7.94926ZM0.729379 11.4096V0.958524H6.06659C7.05064 0.958524 7.81478 1.04036 8.33576 1.21571C8.84513 1.37937 9.29666 1.71839 9.59769 2.17431C9.93341 2.67698 10.0955 3.2615 10.084 3.86938C10.1187 4.8981 9.59769 5.88008 8.70621 6.39448C8.35892 6.59321 7.97685 6.73349 7.5832 6.80361C7.87266 6.88545 8.16207 7.02573 8.4168 7.1894C8.6136 7.35307 8.77567 7.54013 8.92621 7.73886C9.09986 7.93759 9.25035 8.1597 9.37769 8.39349L10.9291 11.4212H7.29379L5.58033 8.20643C5.36033 7.7973 5.17511 7.52841 5.00146 7.39985C4.76988 7.23617 4.49204 7.15434 4.21418 7.15434H3.93632V11.3979H0.729379V11.4096ZM3.93632 5.19039H5.29087C5.58033 5.167 5.85816 5.12022 6.13605 5.0501C6.34442 5.01505 6.52965 4.8981 6.65704 4.72276C6.9696 4.30193 6.92329 3.70572 6.54122 3.34333C6.33285 3.16797 5.92762 3.07445 5.34875 3.07445H3.93632V5.19039ZM0 20.3643L3.04486 20.1655C3.11433 20.6682 3.24168 21.0423 3.45007 21.3112C3.77424 21.732 4.24891 21.9541 4.86254 21.9541C5.31402 21.9541 5.67294 21.8489 5.91605 21.6268C6.14762 21.4397 6.28654 21.1709 6.28654 20.8786C6.28654 20.598 6.1592 20.3292 5.9392 20.1539C5.70767 19.9434 5.16353 19.733 4.29522 19.546C2.89436 19.2303 1.88712 18.8095 1.29667 18.2717C0.706221 17.769 0.370478 17.0325 0.393632 16.2493C0.393632 15.7116 0.555718 15.1738 0.856729 14.7296C1.20405 14.2269 1.67872 13.8294 2.24602 13.6073C2.85962 13.3384 3.71635 13.1981 4.79304 13.1981C6.11289 13.1981 7.12009 13.4436 7.81478 13.9463C8.50941 14.449 8.91463 15.2323 9.04198 16.3195L6.03186 16.4948C5.95078 16.0272 5.78871 15.6882 5.52245 15.466C5.26772 15.2439 4.90885 15.1388 4.45731 15.1504C4.08683 15.1504 3.80897 15.2323 3.62373 15.3959C3.43849 15.5362 3.3343 15.7466 3.34588 15.9804C3.34588 16.1558 3.43849 16.3195 3.57743 16.4247C3.72793 16.565 4.08683 16.6935 4.65413 16.8104C6.05501 17.1144 7.05064 17.4183 7.66424 17.734C8.27784 18.0496 8.71779 18.4354 8.98409 18.8913C9.26193 19.3589 9.40085 19.8966 9.40085 20.4344C9.40085 21.0891 9.20405 21.732 8.84513 22.2814C8.46311 22.8543 7.93054 23.2985 7.30536 23.5674C6.64546 23.8596 5.81186 24.0116 4.81619 24.0116C3.05644 24.0116 1.84081 23.6726 1.15774 22.9828C0.474673 22.2814 0.0926193 21.4164 0 20.3643Z" fill="white"/>
<path d="M15.3976 19.5451L18.1994 20.3985C18.0488 21.1116 17.7363 21.7896 17.3079 22.3858C16.9142 22.9119 16.3933 23.321 15.8029 23.5899C15.2008 23.8588 14.4367 23.9991 13.5105 23.9991C12.3875 23.9991 11.4613 23.8354 10.7551 23.5081C10.0373 23.1808 9.42361 22.5962 8.90262 21.7662C8.38168 20.9362 8.12695 19.8724 8.12695 18.5748C8.12695 16.8447 8.57848 15.512 9.49306 14.5884C10.4078 13.6649 11.6928 13.1973 13.36 13.1973C14.6683 13.1973 15.687 13.4662 16.4396 13.9922C17.1806 14.53 17.7363 15.3483 18.1068 16.4472L15.2819 17.0785C15.2124 16.833 15.1082 16.5875 14.9693 16.377C14.7956 16.1315 14.5756 15.9445 14.3094 15.8042C14.043 15.664 13.7421 15.6055 13.441 15.6055C12.7117 15.6055 12.1559 15.8978 11.7739 16.4939C11.4845 16.9265 11.334 17.6162 11.334 18.5514C11.334 19.7088 11.5076 20.5037 11.855 20.9362C12.2022 21.3688 12.6885 21.5792 13.3253 21.5792C13.9389 21.5792 14.402 21.4038 14.7146 21.0648C15.0271 20.7024 15.2587 20.1997 15.3976 19.5451ZM21.9389 13.3727H25.1342V17.0317H28.6306V13.3727H31.8492V23.8237H28.6306V19.5919H25.1342V23.8237H21.9389V13.3727Z" fill="white"/>
<path d="M31.4102 18.5981C31.4102 16.8913 31.8849 15.5586 32.8226 14.6117C33.7604 13.6648 35.0802 13.1855 36.759 13.1855C38.484 13.1855 39.8038 13.6531 40.7416 14.5883C41.6794 15.5235 42.1425 16.8329 42.1425 18.5162C42.1425 19.7437 41.9341 20.7374 41.5289 21.5206C41.1353 22.2922 40.5217 22.9234 39.7691 23.3443C38.9934 23.7769 38.0325 23.999 36.8863 23.999C35.717 23.999 34.7561 23.8119 33.992 23.4378C33.2047 23.0403 32.5564 22.4208 32.128 21.6609C31.6533 20.8426 31.4102 19.8256 31.4102 18.5981ZM34.6056 18.6097C34.6056 19.6619 34.8024 20.4217 35.1844 20.8894C35.5665 21.3453 36.0991 21.5791 36.7706 21.5791C37.4536 21.5791 37.9862 21.3569 38.3682 20.901C38.7503 20.4451 38.9355 19.6385 38.9355 18.4695C38.9355 17.4875 38.7387 16.7627 38.3451 16.3185C37.9514 15.8625 37.4189 15.6404 36.7474 15.6404C36.157 15.6171 35.5897 15.8743 35.196 16.3302C34.8024 16.7861 34.6056 17.5459 34.6056 18.6097ZM45.4189 18.5981C45.4189 16.8913 45.8936 15.5586 46.8314 14.6117C47.7691 13.6648 49.0891 13.1855 50.7677 13.1855C52.4929 13.1855 53.8242 13.6531 54.7503 14.5883C55.6764 15.5235 56.1512 16.8329 56.1512 18.5162C56.1512 19.7437 55.9427 20.7374 55.5376 21.5206C55.1442 22.2922 54.5305 22.9234 53.7776 23.3443C53.002 23.7769 52.0411 23.999 50.8952 23.999C49.7258 23.999 48.7649 23.8119 48.0006 23.4378C47.2133 23.0403 46.565 22.4208 46.1367 21.6609C45.662 20.8426 45.4189 19.8256 45.4189 18.5981ZM48.6143 18.6097C48.6143 19.6619 48.811 20.4217 49.1931 20.8894C49.5752 21.3453 50.1079 21.5791 50.7794 21.5791C51.4623 21.5791 51.995 21.3569 52.3771 20.901C52.7592 20.4451 52.9442 19.6385 52.9442 18.4695C52.9442 17.4875 52.7474 16.7627 52.3536 16.3185C51.9602 15.8625 51.4275 15.6404 50.7559 15.6404C50.1658 15.6171 49.587 15.8743 49.2049 16.3302C48.811 16.7861 48.6143 17.5459 48.6143 18.6097Z" fill="white"/>
<path d="M55.8144 13.373H59.0097V21.2522H63.9994V23.8241H55.8027V13.373H55.8144Z" fill="white"/>
<path d="M52.2929 12.7692C55.5098 10.3212 56.5018 6.17164 54.5084 3.50073C52.515 0.829826 48.2915 0.649068 45.0743 3.097C41.8572 5.54496 40.8652 9.69456 42.8585 12.3654C44.8518 15.0364 49.0755 15.2171 52.2929 12.7692Z" fill="black"/>
<mask id="mask1_279_1365" style="mask-type:luminance" maskUnits="userSpaceOnUse" x="41" y="1" width="15" height="14">
<path d="M52.2929 12.7692C55.5098 10.3212 56.5018 6.17165 54.5084 3.50073C52.515 0.829823 48.2915 0.649071 45.0743 3.097C41.8572 5.54492 40.8652 9.69457 42.8585 12.3654C44.8518 15.0363 49.0755 15.2171 52.2929 12.7692Z" fill="white"/>
</mask>
<g mask="url(#mask1_279_1365)">
<path d="M34.6543 6.60886L51.2786 -6.04102L62.7821 9.37291L46.1579 22.0227L34.6543 6.60886Z" fill="black"/>
<mask id="mask2_279_1365" style="mask-type:luminance" maskUnits="userSpaceOnUse" x="34" y="-7" width="29" height="30">
<path d="M34.6543 6.60886L51.2786 -6.04102L62.7821 9.37291L46.1579 22.0227L34.6543 6.60886Z" fill="white"/>
</mask>
<g mask="url(#mask2_279_1365)">
<path d="M52.2929 12.7692C55.5099 10.3212 56.5019 6.17165 54.5085 3.50073C52.515 0.829823 48.2915 0.649071 45.0743 3.097C41.8573 5.54492 40.8652 9.69457 42.8585 12.3654C44.8518 15.0363 49.0755 15.2171 52.2929 12.7692Z" fill="black"/>
<mask id="mask3_279_1365" style="mask-type:luminance" maskUnits="userSpaceOnUse" x="41" y="1" width="15" height="14">
<path d="M52.293 12.7692C55.5099 10.3212 56.5019 6.17165 54.5085 3.50073C52.5151 0.829823 48.2916 0.649071 45.0743 3.097C41.8573 5.54492 40.8652 9.69457 42.8586 12.3654C44.8519 15.0363 49.0756 15.2171 52.293 12.7692Z" fill="white"/>
</mask>
<g mask="url(#mask3_279_1365)">
<path d="M39.2832 7.63874L50.924 -1.21875L58.1494 8.46288L46.5085 17.3204L39.2832 7.63874Z" fill="black"/>
<mask id="mask4_279_1365" style="mask-type:luminance" maskUnits="userSpaceOnUse" x="39" y="-2" width="20" height="20">
<path d="M39.2832 7.63875L50.924 -1.21875L58.1494 8.46289L46.5085 17.3204L39.2832 7.63875Z" fill="white"/>
</mask>
<g mask="url(#mask4_279_1365)">
<path d="M52.2927 12.7691C55.5096 10.3212 56.5016 6.17165 54.5087 3.50073C52.5152 0.829823 48.2912 0.64907 45.0743 3.097C41.8572 5.54492 40.8652 9.69456 42.8585 12.3654C44.8518 15.0363 49.0757 15.2171 52.2927 12.7691Z" fill="black" stroke="black" stroke-width="4" stroke-miterlimit="10"/>
</g>
<mask id="mask5_279_1365" style="mask-type:luminance" maskUnits="userSpaceOnUse" x="40" y="-1" width="17" height="18">
<path d="M40.9434 13.4661L44.9761 -0.695312L56.5019 2.63255L52.4689 16.7939L40.9434 13.4661Z" fill="white"/>
</mask>
<g mask="url(#mask5_279_1365)">
<path d="M39.2852 7.65113L50.9379 -1.21875L58.1515 8.45057L46.4985 17.3204L39.2852 7.65113Z" stroke="black" stroke-width="4" stroke-miterlimit="10"/>
</g>
<path d="M52.2929 12.7692C55.5099 10.3212 56.5019 6.17165 54.5084 3.50073C52.515 0.829823 48.2915 0.649071 45.0743 3.097C41.8572 5.54492 40.8652 9.69457 42.8585 12.3654C44.8518 15.0363 49.0755 15.2171 52.2929 12.7692Z" stroke="black" stroke-width="4" stroke-miterlimit="10"/>
<path d="M39.2832 7.63874L50.924 -1.21875L58.1494 8.46288L46.5085 17.3204L39.2832 7.63874Z" fill="black"/>
<mask id="mask6_279_1365" style="mask-type:luminance" maskUnits="userSpaceOnUse" x="39" y="-2" width="20" height="20">
<path d="M39.2832 7.63875L50.924 -1.21875L58.1494 8.46289L46.5085 17.3204L39.2832 7.63875Z" fill="white"/>
</mask>
<g mask="url(#mask6_279_1365)">
<path d="M52.2927 12.7691C55.5096 10.3212 56.5016 6.17165 54.5087 3.50073C52.5152 0.829823 48.2912 0.64907 45.0743 3.097C41.8572 5.54492 40.8652 9.69456 42.8585 12.3654C44.8518 15.0363 49.0757 15.2171 52.2927 12.7691Z" fill="black" stroke="black" stroke-width="4" stroke-miterlimit="10"/>
</g>
<mask id="mask7_279_1365" style="mask-type:luminance" maskUnits="userSpaceOnUse" x="40" y="-1" width="17" height="18">
<path d="M40.9434 13.4661L44.9761 -0.695312L56.5019 2.63255L52.4689 16.7939L40.9434 13.4661Z" fill="white"/>
</mask>
<g mask="url(#mask7_279_1365)">
<path d="M39.2852 7.65113L50.9379 -1.21875L58.1515 8.45057L46.4985 17.3204L39.2852 7.65113Z" stroke="black" stroke-width="4" stroke-miterlimit="10"/>
</g>
<path d="M34.6543 6.60886L51.2786 -6.04102L62.7821 9.37291L46.1579 22.0227L34.6543 6.60886Z" stroke="black" stroke-width="4" stroke-miterlimit="10"/>
</g>
<path d="M52.2929 12.7692C55.5099 10.3212 56.5019 6.17165 54.5085 3.50073C52.515 0.829823 48.2915 0.649071 45.0743 3.097C41.8573 5.54492 40.8652 9.69457 42.8585 12.3654C44.8518 15.0363 49.0755 15.2171 52.2929 12.7692Z" fill="black" stroke="white" stroke-width="4" stroke-miterlimit="10"/>
<path d="M45.4303 7.16449L46.588 6.34619L48.012 8.39197C48.2553 8.71932 48.4403 9.07 48.5796 9.45579C48.6605 9.74807 48.6375 10.0636 48.5217 10.3442C48.3711 10.6949 48.1278 10.9872 47.8036 11.1976C47.4214 11.4665 47.0972 11.6184 46.8196 11.6652C46.5533 11.712 46.2754 11.6652 46.0207 11.5483C45.7429 11.408 45.4998 11.2093 45.3145 10.9521L46.3102 10.0169C46.3912 10.1455 46.4954 10.2624 46.6112 10.3559C46.6922 10.4143 46.7848 10.4494 46.889 10.4494C46.9701 10.4494 47.0511 10.4143 47.109 10.3676C47.2247 10.2974 47.3057 10.1571 47.2944 10.0169C47.2596 9.81819 47.1786 9.61946 47.0511 9.4675L45.4303 7.16449ZM48.9033 8.46214L49.957 7.62045C50.0727 7.76073 50.2233 7.8659 50.3852 7.9244C50.6167 7.99452 50.86 7.94774 51.0567 7.79579C51.196 7.70228 51.3118 7.57367 51.3579 7.41C51.4276 7.1996 51.3118 6.96576 51.1033 6.89565C51.0685 6.88393 51.0337 6.87226 50.9989 6.87226C50.86 6.86059 50.6167 6.91903 50.2582 7.07099C49.6676 7.31649 49.2045 7.41 48.8572 7.37494C48.5217 7.33988 48.2087 7.16449 48.0238 6.87226C47.8845 6.67353 47.8153 6.43974 47.8036 6.2059C47.8036 5.93706 47.8732 5.66816 48.0238 5.44604C48.2436 5.13042 48.5099 4.86153 48.8342 4.65112C49.3203 4.3121 49.7485 4.14844 50.1193 4.14844C50.4897 4.14844 50.837 4.32379 51.1612 4.68619L50.1193 5.51621C49.9109 5.24732 49.517 5.18887 49.2506 5.39927L49.2163 5.43437C49.1005 5.50449 49.0191 5.60972 48.973 5.73833C48.9382 5.83183 48.9612 5.93706 49.0191 6.01889C49.0657 6.07734 49.1349 6.12407 49.2163 6.12407C49.3085 6.13579 49.4709 6.08901 49.7024 5.98379C50.2812 5.73833 50.7212 5.59805 51.0224 5.55127C51.277 5.50449 51.5433 5.52788 51.7862 5.6331C52.0064 5.72661 52.1913 5.89028 52.3189 6.08901C52.4807 6.3228 52.5734 6.60336 52.5852 6.89565C52.5965 7.1996 52.5156 7.49183 52.3537 7.74901C52.1452 8.06468 51.8789 8.33353 51.5664 8.54397C50.9297 8.98816 50.4087 9.17522 49.9918 9.1051C49.54 9.03494 49.1697 8.80115 48.9033 8.46214Z" fill="white"/>
</g>
</g>
</g>
</g>
<defs>
<clipPath id="clip0_279_1365">
<rect width="64" height="24" fill="white"/>
</clipPath>
</defs>
</svg>
